<svg xmlns="http://www.w3.org/2000/svg" viewBox="0 0 500 500"><g id="freepik--background-simple--inject-17"><path d="M69.38,405.38c2.91,29.18-27.24,23.35-35,36-6.09,9.9-6.82,16.2-6.85,18.48H458c3.07-13,19.72-90,7.32-175.09-13.62-93.39-81.72-168.29-144.94-176.07s-69.07,55.45-100.2,78.79-83.65-25.29-141-13.61-75.87,108-63.22,157.58S66.46,376.2,69.38,405.38Z" style="fill:#AA000E"></path><path d="M69.38,405.38c2.91,29.18-27.24,23.35-35,36-6.09,9.9-6.82,16.2-6.85,18.48H458c3.07-13,19.72-90,7.32-175.09-13.62-93.39-81.72-168.29-144.94-176.07s-69.07,55.45-100.2,78.79-83.65-25.29-141-13.61-75.87,108-63.22,157.58S66.46,376.2,69.38,405.38Z" style="fill:#fff;opacity:0.8"></path></g><g id="freepik--Clouds--inject-17"><path d="M271.55,163.61H59.65a.51.51,0,0,1-.49-.63c0-.06,1.81-6.8,10.92-7.62,3-.27,5-.27,6.43-.27,2.87,0,3.64,0,6.19-2,1.22-1,1.9-2.81,2.68-4.93,1.64-4.42,3.67-9.93,12.1-10.49a20.38,20.38,0,0,1,12.12,2.8c3.07,1.6,5.5,2.86,10.32,1.25s4.93-4,5-7.68c.07-3.26.16-7.32,3.59-12.27,4-5.74,11.4-6.11,17.37-6.41,5.66-.28,9.13-.62,9.13-3.78,0-16.77,9.31-28.41,24.91-31.13,16.69-2.91,38.17,5.84,45.25,25.51.33.93.64,1.86.94,2.78h0c.2.61.39,1.22.58,1.82,2.37,7.45,4.41,13.88,12.81,17.48,4.82,2.06,7.45.94,10.23-.26,3.61-1.55,7.34-3.15,15.62,1.9,14.67,9,6.74,33.38,6.66,33.62A.5.5,0,0,1,271.55,163.61Zm-211.2-1H271.18c.9-3,6.74-24.12-6.33-32.11-7.84-4.79-11.17-3.36-14.7-1.84-2.86,1.23-5.81,2.49-11,.26-8.82-3.78-11-10.73-13.37-18.09-.19-.61-.38-1.22-.58-1.83-.3-.91-.6-1.82-.93-2.74-6.9-19.18-27.86-27.7-44.14-24.87C165,84,156,95.29,156,111.54c0,4.28-4.67,4.51-10.08,4.78-5.75.29-12.91.65-16.6,6-3.25,4.7-3.34,8.59-3.41,11.72-.09,3.78-.16,6.76-5.7,8.61-5.22,1.74-7.95.33-11.1-1.31a19.44,19.44,0,0,0-11.59-2.69c-7.78.52-9.62,5.47-11.23,9.84-.8,2.17-1.56,4.21-3,5.36-2.83,2.26-3.83,2.26-6.82,2.26-1.44,0-3.41,0-6.34.26C63.3,157,61,161,60.35,162.61Z" style="fill:#b2b2b2"></path><path d="M146.79,158.78a.5.5,0,0,1-.5-.46c0-.23-.34-5.59,7.1-8.49,4.14-1.61,6.16.44,7.79,2.08,1.42,1.45,2.45,2.49,4.55,1.53,1.84-.85,2.36-3,3-5.58.93-4,2.09-8.91,9.13-10.42s9.38,1.53,11.3,4c1.22,1.56,2.11,2.68,3.89,2.41,3-.46,4.12-3.79,5.33-7.32a23.36,23.36,0,0,1,2.72-6.05c1.81-2.48,5.9-5.2,11-5.7,3.65-.35,9.18.33,14.91,5.63,10.88,10.08,6.56,23.93,6.52,24.06a.51.51,0,0,1-.63.33.5.5,0,0,1-.32-.63c0-.14,4.15-13.39-6.25-23-5.45-5-10.69-5.7-14.13-5.37-4.77.47-8.6,3-10.27,5.3a22.67,22.67,0,0,0-2.58,5.78c-1.26,3.66-2.56,7.44-6.13,8-2.36.36-3.56-1.17-4.83-2.78-1.83-2.34-3.91-5-10.3-3.61s-7.45,5.78-8.37,9.67c-.62,2.67-1.21,5.2-3.5,6.26-2.73,1.26-4.23-.26-5.69-1.74-1.63-1.65-3.17-3.22-6.71-1.84-6.72,2.61-6.48,7.28-6.46,7.47a.51.51,0,0,1-.47.54Z" style="fill:#b2b2b2"></path><path d="M122.79,155.23a.5.5,0,0,1-.49-.45c0-.2-.4-4.84,6.5-8.06a16.32,16.32,0,0,1,8.32-1.54,11.68,11.68,0,0,0,6.33-1.12c1.93-1,2.31-3.21,2.79-6.06.74-4.35,1.65-9.76,8.78-13a20.89,20.89,0,0,1,21,1.84.5.5,0,1,1-.63.78,19.84,19.84,0,0,0-19.91-1.71c-6.65,3.07-7.48,8-8.21,12.31-.51,3-.95,5.6-3.33,6.78a12.61,12.61,0,0,1-6.81,1.23,15.25,15.25,0,0,0-7.86,1.45c-6.27,2.92-5.94,7-5.94,7.05a.49.49,0,0,1-.44.54Z" style="fill:#b2b2b2"></path><path d="M371.45,96.49H259.36a.49.49,0,0,1-.4-.2.54.54,0,0,1-.09-.43c0-.15,1-3.76,6-4.21,1.57-.14,2.63-.14,3.4-.14h.05a3.67,3.67,0,0,0,3.11-1,5.83,5.83,0,0,0,1.34-2.5c.84-2.28,2-5.4,6.61-5.71a11.07,11.07,0,0,1,6.53,1.51c1.58.82,2.82,1.47,5.28.65s2.44-1.89,2.49-3.85A10.75,10.75,0,0,1,295.6,74c2.17-3.13,6.16-3.33,9.37-3.5,2.94-.14,4.61-.3,4.61-1.76,0-9,5-15.24,13.36-16.7,8.94-1.56,20.42,3.13,24.2,13.65.18.49.35,1,.5,1.47h0l.31,1c1.24,3.88,2.3,7.24,6.65,9.1a5.54,5.54,0,0,0,5.22-.14c1.87-.8,4-1.71,8.48,1,7.92,4.85,3.8,17.53,3.62,18.06A.5.5,0,0,1,371.45,96.49Zm-111.35-1h111c.59-2,3.26-12.54-3.3-16.55-4-2.47-5.75-1.74-7.56-1a6.52,6.52,0,0,1-6,.14c-4.76-2-5.95-5.77-7.2-9.72l-.31-1c-.15-.48-.31-1-.49-1.44-3.6-10-14.57-14.49-23.08-13-7.86,1.36-12.54,7.24-12.54,15.71,0,2.48-2.7,2.62-5.56,2.76-3.15.16-6.71.34-8.6,3.06a9.86,9.86,0,0,0-1.76,6.08c-.05,2-.09,3.74-3.18,4.77a6.69,6.69,0,0,1-6.05-.71,10,10,0,0,0-6-1.4c-4,.27-4.9,2.81-5.73,5.06A6.62,6.62,0,0,1,272,91.26a4.56,4.56,0,0,1-3.73,1.25h-.05c-.75,0-1.78,0-3.31.14A5.68,5.68,0,0,0,260.1,95.49Z" style="fill:#b2b2b2"></path><path d="M305.45,93.93a.5.5,0,0,1-.5-.46c0-.13-.19-3.13,3.91-4.72,2.33-.91,3.51.28,4.37,1.15s1.23,1.18,2.14.76,1.12-1.46,1.43-2.79c.51-2.17,1.14-4.86,5-5.69s5.22.91,6.21,2.18c.68.87,1.06,1.31,1.84,1.19,1.43-.22,2-1.92,2.63-3.72A12.69,12.69,0,0,1,334,78.58a8.72,8.72,0,0,1,6-3.12,10.23,10.23,0,0,1,8.07,3c5.86,5.43,3.53,12.9,3.51,13a.5.5,0,0,1-.95-.31c0-.07,2.15-6.94-3.24-11.93A9.31,9.31,0,0,0,340,76.46a7.82,7.82,0,0,0-5.27,2.7,11.79,11.79,0,0,0-1.33,3c-.69,2-1.4,4.07-3.43,4.38-1.39.21-2.09-.69-2.77-1.56-1-1.24-2-2.52-5.22-1.82s-3.76,2.85-4.24,4.94c-.35,1.47-.67,2.86-2,3.47-1.59.73-2.52-.21-3.27-1s-1.58-1.59-3.3-.92C305.84,91,305.94,93.3,306,93.4a.5.5,0,0,1-.46.53Z" style="fill:#b2b2b2"></path><path d="M292.76,92.05a.51.51,0,0,1-.5-.45c0-.11-.22-2.72,3.58-4.5a8.9,8.9,0,0,1,4.5-.83,6,6,0,0,0,3.24-.57c.91-.45,1.11-1.59,1.35-3,.38-2.23.89-5.29,4.78-7.08a11.09,11.09,0,0,1,11.33,1,.5.5,0,0,1,.08.7.49.49,0,0,1-.7.08,10.13,10.13,0,0,0-10.29-.87c-3.41,1.57-3.84,4.1-4.21,6.34-.27,1.58-.53,3.07-1.89,3.76a7,7,0,0,1-3.72.67,8,8,0,0,0-4.05.74c-3.12,1.46-3,3.42-3,3.5a.51.51,0,0,1-.46.54Z" style="fill:#b2b2b2"></path></g><g id="freepik--trees-1--inject-17"><path d="M98.33,328.19c0-.33-.24-.57-.49-.52l-13.81,3c-.49.11-.69-.8-.23-1.06l13.92-7.86a.6.6,0,0,0,.25-.55c-.58-10-1.47-21.05-2.64-32.28,0-.32-.26-.54-.49-.48l-12.23,3.14c-.45.11-.69-.67-.32-1l11.8-10.72a.67.67,0,0,0,.18-.55c-.63-5.42-1.33-10.84-2.08-16.19l-1-5.34c-.06-.33-.33-.52-.56-.39l-7.12,3.93c-.42.23-.78-.48-.46-.91l7.09-9.44a.68.68,0,0,0,.11-.51c-1.42-8.79-3-17.15-4.67-24.68-.08-.35-.39-.5-.62-.31l-9.17,7.52c-.39.31-.82-.31-.56-.8l8.07-15a.71.71,0,0,0,0-.52,121.59,121.59,0,0,0-4.54-14.13.37.37,0,0,0-.53-.24L72,205.93c-.32.19-.67-.22-.56-.67l2-8c0-.14.18-.73.34-1.24l.52-2.07c-1.48-1.82-3-2.81-4.53-2.81s-3.27,1.12-4.84,3.18l2.37,11c.11.45-.24.86-.57.67L61,202.58c-.2-.12-.43,0-.54.24a129.59,129.59,0,0,0-4.65,14.74.73.73,0,0,0,.06.51l7.54,14.07c.26.49-.17,1.11-.56.8l-8.51-7c-.23-.19-.54,0-.62.31-1.69,7.64-3.26,16.11-4.68,25a.71.71,0,0,0,.11.52l6.44,8.57c.32.43,0,1.14-.46.91l-6.57-3.62c-.24-.14-.52.06-.57.4-1.06,7.16-2,14.52-2.87,21.86a.69.69,0,0,0,.18.55l11.09,10.07c.37.34.13,1.12-.32,1L44.56,288.6c-.23-.06-.46.16-.49.47-1.18,11.33-2.07,22.42-2.65,32.52a.58.58,0,0,0,.26.55l13.15,7.43c.46.26.26,1.17-.23,1.06l-13-2.79c-.24,0-.47.19-.48.52-.26,5.81-.39,11.19-.39,16,0,3,.06,5.94.16,8.73a.57.57,0,0,0,.29.51l13.75,5.74c.44.19.37,1.05-.1,1.09l-13,1.15c-.24,0-.41.31-.39.63a113.76,113.76,0,0,0,4.26,23.67c.09.26.31.4.52.31l8-3.45c.41-.18.73.49.44.91l-6.17,8.77a.69.69,0,0,0,0,.67c5.3,11.67,12.89,16.72,21.33,16.72,8.27,0,15.73-4.85,21-16a.71.71,0,0,0,0-.68L84,383.61c-.29-.42,0-1.09.44-.91l8.67,3.75c.21.09.43,0,.52-.31A112.77,112.77,0,0,0,98,362.24c0-.32-.15-.61-.39-.63l-13.79-1.22c-.46,0-.53-.9-.09-1.09l14.37-6a.5.5,0,0,0,.28-.38l.21-1s0-.08,0-.12c.07-2.4.11-4.87.11-7.44C98.72,339.5,98.59,334.06,98.33,328.19Z" style="fill:#AA000E"></path><path d="M98.33,328.19c0-.33-.24-.57-.49-.52l-13.81,3c-.49.11-.69-.8-.23-1.06l13.92-7.86a.6.6,0,0,0,.25-.55c-.58-10-1.47-21.05-2.64-32.28,0-.32-.26-.54-.49-.48l-12.23,3.14c-.45.11-.69-.67-.32-1l11.8-10.72a.67.67,0,0,0,.18-.55c-.63-5.42-1.33-10.84-2.08-16.19l-1-5.34c-.06-.33-.33-.52-.56-.39l-7.12,3.93c-.42.23-.78-.48-.46-.91l7.09-9.44a.68.68,0,0,0,.11-.51c-1.42-8.79-3-17.15-4.67-24.68-.08-.35-.39-.5-.62-.31l-9.17,7.52c-.39.31-.82-.31-.56-.8l8.07-15a.71.71,0,0,0,0-.52,121.59,121.59,0,0,0-4.54-14.13.37.37,0,0,0-.53-.24L72,205.93c-.32.19-.67-.22-.56-.67l2-8c0-.14.18-.73.34-1.24l.52-2.07c-1.48-1.82-3-2.81-4.53-2.81s-3.27,1.12-4.84,3.18l2.37,11c.11.45-.24.86-.57.67L61,202.58c-.2-.12-.43,0-.54.24a129.59,129.59,0,0,0-4.65,14.74.73.73,0,0,0,.06.51l7.54,14.07c.26.49-.17,1.11-.56.8l-8.51-7c-.23-.19-.54,0-.62.31-1.69,7.64-3.26,16.11-4.68,25a.71.71,0,0,0,.11.52l6.44,8.57c.32.43,0,1.14-.46.91l-6.57-3.62c-.24-.14-.52.06-.57.4-1.06,7.16-2,14.52-2.87,21.86a.69.69,0,0,0,.18.55l11.09,10.07c.37.34.13,1.12-.32,1L44.56,288.6c-.23-.06-.46.16-.49.47-1.18,11.33-2.07,22.42-2.65,32.52a.58.58,0,0,0,.26.55l13.15,7.43c.46.26.26,1.17-.23,1.06l-13-2.79c-.24,0-.47.19-.48.52-.26,5.81-.39,11.19-.39,16,0,3,.06,5.94.16,8.73a.57.57,0,0,0,.29.51l13.75,5.74c.44.19.37,1.05-.1,1.09l-13,1.15c-.24,0-.41.31-.39.63a113.76,113.76,0,0,0,4.26,23.67c.09.26.31.4.52.31l8-3.45c.41-.18.73.49.44.91l-6.17,8.77a.69.69,0,0,0,0,.67c5.3,11.67,12.89,16.72,21.33,16.72,8.27,0,15.73-4.85,21-16a.71.71,0,0,0,0-.68L84,383.61c-.29-.42,0-1.09.44-.91l8.67,3.75c.21.09.43,0,.52-.31A112.77,112.77,0,0,0,98,362.24c0-.32-.15-.61-.39-.63l-13.79-1.22c-.46,0-.53-.9-.09-1.09l14.37-6a.5.5,0,0,0,.28-.38l.21-1s0-.08,0-.12c.07-2.4.11-4.87.11-7.44C98.72,339.5,98.59,334.06,98.33,328.19Z" style="fill:#fff;opacity:0.6000000000000001"></path><polygon points="70.86 367.82 69.97 317.37 85.48 304.52 69.86 310.87 69.57 294.38 69.44 294.65 69.53 292.24 69.11 268.53 81.95 256.67 69.36 264.23 69.08 266.74 68.56 237.36 68.28 243.15 66.92 287.06 66.34 285.89 56.26 279.34 66.85 289.63 65.12 345.29 49.21 340.29 64.94 351.1 63.76 389.34 57.77 388.14 63.57 395.39 62.93 416.23 62.13 459.85 72.47 459.85 70.94 372.39 83.46 369.5 70.86 367.82" style="fill:#263238"></polygon><polygon points="70.86 367.82 69.97 317.37 85.48 304.52 69.86 310.87 69.57 294.38 69.44 294.65 69.53 292.24 69.11 268.53 81.95 256.67 69.36 264.23 69.08 266.74 68.56 237.36 68.28 243.15 66.92 287.06 66.34 285.89 56.26 279.34 66.85 289.63 65.12 345.29 49.21 340.29 64.94 351.1 63.76 389.34 57.77 388.14 63.57 395.39 62.93 416.23 62.13 459.85 72.47 459.85 70.94 372.39 83.46 369.5 70.86 367.82" style="fill:#fff;opacity:0.5"></polygon><path d="M269.87,317.37c0-.36-.26-.62-.52-.57l-15,3.21c-.52.11-.74-.88-.24-1.15l15.06-8.51a.63.63,0,0,0,.27-.6c-.62-10.86-1.59-22.78-2.85-34.93,0-.35-.28-.58-.54-.51l-13.23,3.39c-.48.12-.75-.73-.34-1.09L265.29,265a.7.7,0,0,0,.19-.59c-.69-5.87-1.44-11.74-2.25-17.53l-1-5.78c-.06-.36-.35-.56-.61-.42l-7.7,4.25c-.46.25-.85-.52-.5-1l7.67-10.22a.69.69,0,0,0,.12-.55c-1.53-9.52-3.22-18.57-5.05-26.71-.09-.38-.42-.55-.67-.34l-9.93,8.14c-.42.34-.89-.33-.6-.87l8.73-16.28a.77.77,0,0,0,.06-.56,133.57,133.57,0,0,0-4.91-15.29c-.12-.28-.37-.39-.58-.26l-6.89,4c-.36.21-.73-.23-.62-.73l2.17-8.68c0-.16.19-.79.36-1.35l.56-2.24c-1.6-2-3.23-3-4.9-3s-3.53,1.21-5.24,3.45l2.57,11.86c.11.5-.26.94-.61.73l-6.2-3.63c-.22-.13-.47,0-.58.27a138,138,0,0,0-5,15.95.74.74,0,0,0,.06.55L232,213.41c.28.54-.19,1.21-.61.87l-9.2-7.55c-.26-.21-.59,0-.67.34-1.84,8.26-3.54,17.43-5.08,27.05a.82.82,0,0,0,.12.56l7,9.28c.35.46,0,1.23-.49,1L216,241c-.26-.14-.56.07-.62.44-1.14,7.75-2.18,15.71-3.1,23.66a.7.7,0,0,0,.19.59l12,10.9c.4.36.14,1.21-.34,1.09l-12.41-3.18c-.25-.07-.5.17-.53.51-1.27,12.26-2.24,24.26-2.86,35.19a.63.63,0,0,0,.27.6l14.24,8c.49.27.28,1.26-.25,1.15l-14.11-3c-.26-.05-.51.21-.52.57-.28,6.28-.42,12.1-.42,17.27q0,4.92.17,9.45a.62.62,0,0,0,.32.55L222.86,351c.48.2.4,1.14-.1,1.18l-14.07,1.25c-.26,0-.45.33-.42.68a122.13,122.13,0,0,0,4.61,25.61c.09.29.33.44.56.34l8.64-3.73c.44-.2.79.53.47,1l-6.68,9.49a.79.79,0,0,0-.06.73c5.74,12.63,14,18.09,23.09,18.09,8.95,0,17-5.25,22.74-17.35a.77.77,0,0,0-.05-.74l-7.19-10.22c-.32-.45,0-1.18.47-1l9.39,4.05a.42.42,0,0,0,.56-.33,121.48,121.48,0,0,0,4.7-25.87.59.59,0,0,0-.42-.68l-14.91-1.32c-.5,0-.59-1-.11-1.18l15.56-6.5a.55.55,0,0,0,.3-.42l.22-1.1c0-.05,0-.09,0-.14q.12-3.89.12-8.05C270.3,329.6,270.15,323.72,269.87,317.37Z" style="fill:#AA000E"></path><path d="M269.87,317.37c0-.36-.26-.62-.52-.57l-15,3.21c-.52.11-.74-.88-.24-1.15l15.06-8.51a.63.63,0,0,0,.27-.6c-.62-10.86-1.59-22.78-2.85-34.93,0-.35-.28-.58-.54-.51l-13.23,3.39c-.48.12-.75-.73-.34-1.09L265.29,265a.7.7,0,0,0,.19-.59c-.69-5.87-1.44-11.74-2.25-17.53l-1-5.78c-.06-.36-.35-.56-.61-.42l-7.7,4.25c-.46.25-.85-.52-.5-1l7.67-10.22a.69.69,0,0,0,.12-.55c-1.53-9.52-3.22-18.57-5.05-26.71-.09-.38-.42-.55-.67-.34l-9.93,8.14c-.42.34-.89-.33-.6-.87l8.73-16.28a.77.77,0,0,0,.06-.56,133.57,133.57,0,0,0-4.91-15.29c-.12-.28-.37-.39-.58-.26l-6.89,4c-.36.21-.73-.23-.62-.73l2.17-8.68c0-.16.19-.79.36-1.35l.56-2.24c-1.6-2-3.23-3-4.9-3s-3.53,1.21-5.24,3.45l2.57,11.86c.11.5-.26.94-.61.73l-6.2-3.63c-.22-.13-.47,0-.58.27a138,138,0,0,0-5,15.95.74.74,0,0,0,.06.55L232,213.41c.28.54-.19,1.21-.61.87l-9.2-7.55c-.26-.21-.59,0-.67.34-1.84,8.26-3.54,17.43-5.08,27.05a.82.82,0,0,0,.12.56l7,9.28c.35.46,0,1.23-.49,1L216,241c-.26-.14-.56.07-.62.44-1.14,7.75-2.18,15.71-3.1,23.66a.7.7,0,0,0,.19.59l12,10.9c.4.36.14,1.21-.34,1.09l-12.41-3.18c-.25-.07-.5.17-.53.51-1.27,12.26-2.24,24.26-2.86,35.19a.63.63,0,0,0,.27.6l14.24,8c.49.27.28,1.26-.25,1.15l-14.11-3c-.26-.05-.51.21-.52.57-.28,6.28-.42,12.1-.42,17.27q0,4.92.17,9.45a.62.62,0,0,0,.32.55L222.86,351c.48.2.4,1.14-.1,1.18l-14.07,1.25c-.26,0-.45.33-.42.68a122.13,122.13,0,0,0,4.61,25.61c.09.29.33.44.56.34l8.64-3.73c.44-.2.79.53.47,1l-6.68,9.49a.79.79,0,0,0-.06.73c5.74,12.63,14,18.09,23.09,18.09,8.95,0,17-5.25,22.74-17.35a.77.77,0,0,0-.05-.74l-7.19-10.22c-.32-.45,0-1.18.47-1l9.39,4.05a.42.42,0,0,0,.56-.33,121.48,121.48,0,0,0,4.7-25.87.59.59,0,0,0-.42-.68l-14.91-1.32c-.5,0-.59-1-.11-1.18l15.56-6.5a.55.55,0,0,0,.3-.42l.22-1.1c0-.05,0-.09,0-.14q.12-3.89.12-8.05C270.3,329.6,270.15,323.72,269.87,317.37Z" style="fill:#fff;opacity:0.6000000000000001"></path><polygon points="240.14 360.25 239.18 305.66 255.97 291.75 239.06 298.62 238.75 280.77 238.6 281.07 238.71 278.45 238.25 252.79 252.15 239.97 238.52 248.14 238.22 250.86 237.66 219.07 237.36 225.34 235.89 272.85 235.25 271.58 224.35 264.5 235.8 275.63 233.94 335.87 216.72 330.46 233.74 342.16 232.46 383.54 225.98 382.24 232.26 390.08 231.56 412.64 230.7 459.85 241.89 459.85 240.23 365.2 253.78 362.07 240.14 360.25" style="fill:#263238"></polygon><polygon points="240.14 360.25 239.18 305.66 255.97 291.75 239.06 298.62 238.75 280.77 238.6 281.07 238.71 278.45 238.25 252.79 252.15 239.97 238.52 248.14 238.22 250.86 237.66 219.07 237.36 225.34 235.89 272.85 235.25 271.58 224.35 264.5 235.8 275.63 233.94 335.87 216.72 330.46 233.74 342.16 232.46 383.54 225.98 382.24 232.26 390.08 231.56 412.64 230.7 459.85 241.89 459.85 240.23 365.2 253.78 362.07 240.14 360.25" style="fill:#fff;opacity:0.5"></polygon><path d="M167.89,264.4c0-.49-.36-.85-.72-.77L146.65,268c-.72.16-1-1.19-.34-1.58L167,254.78a.88.88,0,0,0,.38-.82c-.85-14.9-2.18-31.25-3.92-47.93-.05-.47-.38-.79-.73-.7L144.55,210c-.66.17-1-1-.47-1.49l17.51-15.91a1,1,0,0,0,.27-.81c-.94-8.05-2-16.11-3.08-24l-1.43-7.93c-.09-.5-.49-.77-.84-.57L146,165.05c-.63.35-1.16-.71-.68-1.35l10.52-14a1,1,0,0,0,.16-.76c-2.1-13.05-4.42-25.46-6.93-36.64-.12-.52-.57-.74-.92-.46L134.48,123c-.57.48-1.22-.45-.82-1.18l12-22.34a1.07,1.07,0,0,0,.08-.77,181.69,181.69,0,0,0-6.73-21,.55.55,0,0,0-.8-.35l-9.45,5.53c-.48.29-1-.32-.84-1l3-11.91c0-.21.26-1.09.49-1.85l.78-3.07c-2.2-2.7-4.44-4.17-6.73-4.17-2.45,0-4.85,1.66-7.18,4.73l3.52,16.27c.15.68-.36,1.29-.84,1l-8.5-5a.56.56,0,0,0-.8.37,190.7,190.7,0,0,0-6.9,21.88,1,1,0,0,0,.08.76L116,121.81c.4.73-.25,1.66-.83,1.18l-12.62-10.35c-.35-.29-.81-.06-.93.46-2.51,11.33-4.85,23.91-7,37.11a1,1,0,0,0,.16.76l9.56,12.73c.48.64,0,1.7-.68,1.35l-9.74-5.37c-.37-.2-.78.09-.85.6-1.57,10.63-3,21.55-4.26,32.45a1,1,0,0,0,.26.81l16.46,15c.55.5.19,1.66-.47,1.49l-17-4.36c-.35-.08-.69.24-.74.71-1.74,16.81-3.07,33.28-3.92,48.27a.88.88,0,0,0,.38.82l19.52,11c.68.39.39,1.74-.34,1.58l-19.35-4.14c-.36-.08-.7.28-.72.77-.38,8.62-.58,16.6-.58,23.7q0,6.73.24,13a.81.81,0,0,0,.44.74l20.4,8.53c.66.28.54,1.56-.14,1.62L84,313.91c-.36,0-.62.46-.58.93,1.2,14,3.37,25.6,6.32,35.13.13.4.46.6.77.47l11.85-5.12c.61-.27,1.08.73.65,1.35l-9.16,13a1,1,0,0,0-.08,1c7.87,17.32,19.14,24.82,31.67,24.82,12.27,0,23.35-7.21,31.19-23.81a1,1,0,0,0-.07-1l-9.86-14c-.44-.62,0-1.62.64-1.35l12.89,5.56c.3.14.64-.06.76-.46,3-9.59,5.24-21.35,6.46-35.48a.82.82,0,0,0-.58-.93l-20.46-1.81c-.69-.06-.8-1.34-.15-1.62l21.34-8.92a.76.76,0,0,0,.42-.57l.3-1.52a1.1,1.1,0,0,0,0-.18c.11-3.56.17-7.23.17-11C168.47,281.19,168.27,273.12,167.89,264.4Z" style="fill:#AA000E"></path><path d="M167.89,264.4c0-.49-.36-.85-.72-.77L146.65,268c-.72.16-1-1.19-.34-1.58L167,254.78a.88.88,0,0,0,.38-.82c-.85-14.9-2.18-31.25-3.92-47.93-.05-.47-.38-.79-.73-.7L144.55,210c-.66.17-1-1-.47-1.49l17.51-15.91a1,1,0,0,0,.27-.81c-.94-8.05-2-16.11-3.08-24l-1.43-7.93c-.09-.5-.49-.77-.84-.57L146,165.05c-.63.35-1.16-.71-.68-1.35l10.52-14a1,1,0,0,0,.16-.76c-2.1-13.05-4.42-25.46-6.93-36.64-.12-.52-.57-.74-.92-.46L134.48,123c-.57.48-1.22-.45-.82-1.18l12-22.34a1.07,1.07,0,0,0,.08-.77,181.69,181.69,0,0,0-6.73-21,.55.55,0,0,0-.8-.35l-9.45,5.53c-.48.29-1-.32-.84-1l3-11.91c0-.21.26-1.09.49-1.85l.78-3.07c-2.2-2.7-4.44-4.17-6.73-4.17-2.45,0-4.85,1.66-7.18,4.73l3.52,16.27c.15.68-.36,1.29-.84,1l-8.5-5a.56.56,0,0,0-.8.37,190.7,190.7,0,0,0-6.9,21.88,1,1,0,0,0,.08.76L116,121.81c.4.73-.25,1.66-.83,1.18l-12.62-10.35c-.35-.29-.81-.06-.93.46-2.51,11.33-4.85,23.91-7,37.11a1,1,0,0,0,.16.76l9.56,12.73c.48.64,0,1.7-.68,1.35l-9.74-5.37c-.37-.2-.78.09-.85.6-1.57,10.63-3,21.55-4.26,32.45a1,1,0,0,0,.26.81l16.46,15c.55.5.19,1.66-.47,1.49l-17-4.36c-.35-.08-.69.24-.74.71-1.74,16.81-3.07,33.28-3.92,48.27a.88.88,0,0,0,.38.82l19.52,11c.68.39.39,1.74-.34,1.58l-19.35-4.14c-.36-.08-.7.28-.72.77-.38,8.62-.58,16.6-.58,23.7q0,6.73.24,13a.81.81,0,0,0,.44.74l20.4,8.53c.66.28.54,1.56-.14,1.62L84,313.91c-.36,0-.62.46-.58.93,1.2,14,3.37,25.6,6.32,35.13.13.4.46.6.77.47l11.85-5.12c.61-.27,1.08.73.65,1.35l-9.16,13a1,1,0,0,0-.08,1c7.87,17.32,19.14,24.82,31.67,24.82,12.27,0,23.35-7.21,31.19-23.81a1,1,0,0,0-.07-1l-9.86-14c-.44-.62,0-1.62.64-1.35l12.89,5.56c.3.14.64-.06.76-.46,3-9.59,5.24-21.35,6.46-35.48a.82.82,0,0,0-.58-.93l-20.46-1.81c-.69-.06-.8-1.34-.15-1.62l21.34-8.92a.76.76,0,0,0,.42-.57l.3-1.52a1.1,1.1,0,0,0,0-.18c.11-3.56.17-7.23.17-11C168.47,281.19,168.27,273.12,167.89,264.4Z" style="fill:#fff;opacity:0.4"></path><polygon points="127.1 323.23 125.79 248.34 148.81 229.27 125.62 238.69 125.19 214.21 125 214.61 125.13 211.02 124.51 175.83 143.57 158.23 124.88 169.45 124.47 173.17 123.7 129.56 123.28 138.16 121.27 203.33 120.39 201.6 105.44 191.88 121.15 207.15 118.59 289.78 94.97 282.36 118.32 298.41 116.57 355.17 107.68 353.39 116.29 364.15 115.33 395.09 114.15 459.85 129.5 459.85 127.22 330.02 145.82 325.73 127.1 323.23" style="fill:#263238"></polygon></g><g id="freepik--Cabin--inject-17"><rect x="140.15" y="452.59" width="96.58" height="8.71" style="fill:#263238"></rect><path d="M237.23,461.8H139.65v-9.71h97.58Zm-96.58-1h95.58v-7.71H140.65Z" style="fill:#263238"></path><rect x="233.65" y="452.59" width="158.65" height="8.71" style="fill:#fff"></rect><path d="M392.8,461.8H233.15v-9.71H392.8Zm-158.65-1H391.8v-7.71H234.15Z" style="fill:#263238"></path><polygon points="155.84 452.66 155.84 456.9 149.84 456.9 149.84 461.01 149.86 461.3 164.57 461.3 164.57 452.66 155.84 452.66" style="fill:#fff"></polygon><path d="M165.07,461.8H149.38l0-.77V456.4h6v-4.24h9.73Zm-14.73-1h13.73v-7.64h-7.73v4.24h-6Z" style="fill:#263238"></path><rect x="129.95" y="452.66" width="25.89" height="4.24" style="fill:#fff"></rect><path d="M156.34,457.4H129.45v-5.24h26.89Zm-25.89-1h24.89v-3.24H130.45Z" style="fill:#263238"></path><rect x="123.96" y="457.02" width="25.89" height="4.29" style="fill:#fff"></rect><path d="M150.36,461.8h-26.9v-5.28h26.9Zm-25.9-1h24.9v-3.28h-24.9Z" style="fill:#263238"></path><polygon points="319.05 452.14 139.96 452.14 139.96 322.93 185.2 274.29 319.05 322.93 319.05 452.14" style="fill:#fff"></polygon><path d="M319.55,452.64H139.46V322.73l.14-.14,45.46-48.88,134.49,48.87Zm-179.09-1H318.55V323.28l-133.2-48.41-44.89,48.25Z" style="fill:#263238"></path><path d="M232.91,356.51H140a.5.5,0,0,1-.5-.5.51.51,0,0,1,.5-.5h92.87a.5.5,0,0,1,.5.5A.5.5,0,0,1,232.91,356.51Z" style="fill:#263238"></path><path d="M231.38,337.36H146a.5.5,0,0,1,0-1h85.42a.5.5,0,0,1,0,1Z" style="fill:#263238"></path><path d="M218.74,318.21H160.9a.5.5,0,0,1-.5-.5.5.5,0,0,1,.5-.5h57.84a.5.5,0,0,1,.5.5A.5.5,0,0,1,218.74,318.21Z" style="fill:#263238"></path><path d="M205,299.05h-31a.5.5,0,0,1-.5-.5.5.5,0,0,1,.5-.5h31a.5.5,0,0,1,.5.5A.5.5,0,0,1,205,299.05Z" style="fill:#263238"></path><path d="M232.91,375.2H140a.5.5,0,0,1,0-1h92.87a.5.5,0,1,1,0,1Z" style="fill:#263238"></path><path d="M232.91,393.88H140a.5.5,0,0,1-.5-.5.51.51,0,0,1,.5-.5h92.87a.5.5,0,0,1,.5.5A.5.5,0,0,1,232.91,393.88Z" style="fill:#263238"></path><path d="M232.91,412.57H140a.51.51,0,0,1-.5-.5.5.5,0,0,1,.5-.5h92.87a.5.5,0,0,1,.5.5A.5.5,0,0,1,232.91,412.57Z" style="fill:#263238"></path><path d="M232.91,431.25H140a.5.5,0,0,1-.5-.5.51.51,0,0,1,.5-.5h92.87a.5.5,0,0,1,.5.5A.5.5,0,0,1,232.91,431.25Z" style="fill:#263238"></path><polygon points="104.88 339.09 144.48 339.09 210.48 248.95 170.88 248.95 104.88 339.09" style="fill:#fff"></polygon><path d="M144.48,339.59h-39.6a.49.49,0,0,1-.44-.27.51.51,0,0,1,0-.53l66-90.14a.48.48,0,0,1,.4-.2h39.6a.48.48,0,0,1,.44.27.49.49,0,0,1,0,.52l-66,90.14A.49.49,0,0,1,144.48,339.59Zm-38.61-1h38.36l65.26-89.14H171.13Z" style="fill:#263238"></path><polygon points="104.88 346.92 139.94 346.92 204.67 256.78 171.51 256.78 104.88 346.92" style="fill:#263238"></polygon><rect x="233.45" y="316.44" width="158.88" height="136.14" style="fill:#fff"></rect><path d="M392.83,453.08H233V315.94H392.83Zm-158.88-1H391.83V316.94H234Z" style="fill:#263238"></path><path d="M392,356.51H233.9a.5.5,0,0,1-.5-.5.5.5,0,0,1,.5-.5H392a.51.51,0,0,1,.5.5A.5.5,0,0,1,392,356.51Z" style="fill:#263238"></path><path d="M392,375.2H233.9a.5.5,0,0,1,0-1H392a.5.5,0,0,1,0,1Z" style="fill:#263238"></path><path d="M392,393.88H233.9a.5.5,0,0,1-.5-.5.5.5,0,0,1,.5-.5H392a.51.51,0,0,1,.5.5A.5.5,0,0,1,392,393.88Z" style="fill:#263238"></path><path d="M392,412.57H233.9a.5.5,0,0,1-.5-.5.5.5,0,0,1,.5-.5H392a.5.5,0,0,1,.5.5A.51.51,0,0,1,392,412.57Z" style="fill:#263238"></path><path d="M392,431.25H233.9a.5.5,0,0,1-.5-.5.5.5,0,0,1,.5-.5H392a.51.51,0,0,1,.5.5A.5.5,0,0,1,392,431.25Z" style="fill:#263238"></path><rect x="233.45" y="316.44" width="158.88" height="34.84" style="fill:#263238"></rect><rect x="298.95" y="336.79" width="31.78" height="124.51" style="fill:#263238"></rect><path d="M330.72,461.8H299a.5.5,0,0,1-.5-.5V336.79a.5.5,0,0,1,.5-.5h31.77a.5.5,0,0,1,.5.5V461.3A.5.5,0,0,1,330.72,461.8Zm-31.27-1h30.77V337.29H299.45Z" style="fill:#263238"></path><rect x="310.62" y="336.79" width="20.1" height="124.51" style="fill:#fff"></rect><path d="M330.72,461.8h-20.1a.5.5,0,0,1-.5-.5V336.79a.5.5,0,0,1,.5-.5h20.1a.5.5,0,0,1,.5.5V461.3A.5.5,0,0,1,330.72,461.8Zm-19.6-1h19.1V337.29h-19.1Z" style="fill:#263238"></path><path d="M322.57,379.06c-1.37,0-2.91-1.7-3.51-2.43-1.35-1.65-2.58-4-2.29-5.46.47-2.34,3.76-5.65,3.9-5.79l.11-.09c.23-.12,2.23-1.2,3.72-.7s4.79,4.49,4.54,7.16S325,379.06,322.57,379.06Zm-1.24-12.92c-.41.42-3.2,3.32-3.58,5.22-.19,1,.68,2.93,2.09,4.64,1,1.25,2.1,2.06,2.73,2.06,1.69,0,5.28-4.19,5.48-6.4s-2.79-5.76-3.87-6.12A4.51,4.51,0,0,0,321.33,366.14Z" style="fill:#263238"></path><path d="M316.6,368.44a.48.48,0,0,1-.2,0c-.14-.06-3.52-1.54-2.7-3.73a3.51,3.51,0,0,1,2-2.35c1.05-.33,2.38.07,4.07,1.23a.5.5,0,0,1,.12.71l-2.87,4A.51.51,0,0,1,316.6,368.44Zm-.15-5.23a1.65,1.65,0,0,0-.46.06c-.55.18-1,.7-1.36,1.75s1.11,1.91,1.81,2.29l2.33-3.22A4.73,4.73,0,0,0,316.45,363.21Z" style="fill:#263238"></path><path d="M323.24,362.91c-1.85,0-5.15-.83-5.15-2.49a1,1,0,0,1,.33-.74c.8-.75,3.07-.68,3.68-.64a10.31,10.31,0,0,1,3.25-.21c.41.1.81.52.7,1.38A3.05,3.05,0,0,1,323.24,362.91ZM321.4,360a4.06,4.06,0,0,0-2.31.41c0,.54,2.05,1.48,4.15,1.48a1.85,1.85,0,0,0,1.54-1,1.52,1.52,0,0,0,.26-1.12,11.54,11.54,0,0,0-2.81.27h-.13C321.86,360,321.62,360,321.4,360Z" style="fill:#263238"></path><path d="M317,383.94l-.22,0c-1.8-.25-4.59-3.58-5.05-5.22s.21-3.24,1.89-4.91a2,2,0,0,1,1.52-.64,3.35,3.35,0,0,1,2.09,1.1l.06.09c.08.14,2,3.58,2.46,4.7.39,1-.23,2.86-1,3.89A2.18,2.18,0,0,1,317,383.94Zm-1.92-9.79a1,1,0,0,0-.75.34c-1.43,1.43-2,2.75-1.64,3.93.41,1.44,3,4.33,4.23,4.51.39.06.8-.36,1-.61a4.13,4.13,0,0,0,.9-2.91c-.4-1-2.13-4.1-2.38-4.53a2.2,2.2,0,0,0-1.33-.73Z" style="fill:#263238"></path><path d="M326.33,388.8a1.92,1.92,0,0,1-1.38-.74,8.47,8.47,0,0,1-1.77-5.78c.23-2.75,3.35-4.76,3.74-5a1.29,1.29,0,0,1,1.39-.36c.91.42,1,2.08,1,5S328.15,388.8,326.33,388.8Zm1.56-11a2,2,0,0,0-.35.24l-.06.05s-3.11,1.89-3.3,4.26a7.46,7.46,0,0,0,1.5,5,1.05,1.05,0,0,0,.65.42c.73,0,1.94-2.77,1.94-5.92C328.27,380.47,328.27,378.12,327.89,377.82Zm-.67-.14h0Z" style="fill:#263238"></path><path d="M321.51,387.38a1.54,1.54,0,0,1-.69-.18,3.73,3.73,0,0,1-1.84-2.66c0-1,1.34-3.33,1.61-3.8l0-.05a1.06,1.06,0,0,1,1.09-.52c.63.14.87.95,1,1.55.32,1.49.36,4.77-.51,5.43A1.2,1.2,0,0,1,321.51,387.38Zm-.07-6.1a12.28,12.28,0,0,0-1.46,3.26,2.91,2.91,0,0,0,1.29,1.77c.23.12.31.06.34,0a7.88,7.88,0,0,0,.27-3.42,4.72,4.72,0,0,0-.38-1.73Z" style="fill:#263238"></path><path d="M317,357.73a3.73,3.73,0,0,1-1-.15c-1.33-.35-3.18-1.48-3.18-2.69a1.19,1.19,0,0,1,.39-.86c.92-.87,3.41-.77,3.9-.74a.44.44,0,0,1,.25.08c.82.55,2.15,2,1.26,3.54A1.73,1.73,0,0,1,317,357.73Zm-.52-3.46a4.94,4.94,0,0,0-2.59.49c-.07.07-.07.11-.07.13,0,.42,1.12,1.38,2.44,1.73.28.07,1.22.28,1.49-.21.55-1-.49-1.87-.84-2.13Z" style="fill:#263238"></path><path d="M322.57,412.39c-1.37,0-2.91-1.7-3.51-2.43-1.35-1.65-2.58-4-2.29-5.47.47-2.33,3.76-5.64,3.9-5.78a.48.48,0,0,1,.11-.09c.23-.12,2.23-1.2,3.72-.7s4.79,4.49,4.54,7.16S325,412.39,322.57,412.39Zm-1.24-12.92c-.41.41-3.2,3.32-3.58,5.22-.19,1,.68,2.93,2.09,4.64,1,1.25,2.1,2.06,2.73,2.06,1.69,0,5.28-4.19,5.48-6.4s-2.79-5.76-3.87-6.12A4.51,4.51,0,0,0,321.33,399.47Z" style="fill:#263238"></path><path d="M316.6,401.77a.48.48,0,0,1-.2,0c-.14-.06-3.52-1.54-2.7-3.73a3.51,3.51,0,0,1,2-2.35c1.05-.33,2.38.07,4.07,1.23a.49.49,0,0,1,.21.33.48.48,0,0,1-.09.37l-2.87,4A.51.51,0,0,1,316.6,401.77Zm-.15-5.23a1.65,1.65,0,0,0-.46.06c-.55.18-1,.7-1.36,1.75s1.11,1.91,1.81,2.29l2.33-3.22A4.73,4.73,0,0,0,316.45,396.54Z" style="fill:#263238"></path><path d="M323.24,396.24c-1.85,0-5.15-.83-5.15-2.49a1,1,0,0,1,.33-.74c.8-.75,3.07-.68,3.68-.65a10.66,10.66,0,0,1,3.25-.2c.41.1.81.52.7,1.38A3.05,3.05,0,0,1,323.24,396.24Zm-1.84-2.9a4,4,0,0,0-2.31.42c0,.54,2.05,1.48,4.15,1.48a1.85,1.85,0,0,0,1.54-1,1.52,1.52,0,0,0,.26-1.12,11.54,11.54,0,0,0-2.81.27h-.13Z" style="fill:#263238"></path><path d="M317,417.27l-.22,0c-1.8-.25-4.59-3.58-5.05-5.22s.21-3.24,1.89-4.92a2.07,2.07,0,0,1,1.52-.63,3.35,3.35,0,0,1,2.09,1.1.7.7,0,0,1,.06.09c.08.14,2,3.58,2.46,4.7.39,1-.23,2.86-1,3.89A2.18,2.18,0,0,1,317,417.27Zm-1.92-9.8a1.05,1.05,0,0,0-.75.35c-1.43,1.43-2,2.75-1.64,3.93.41,1.44,3,4.33,4.23,4.51.39.06.8-.36,1-.61a4.13,4.13,0,0,0,.9-2.91c-.4-1-2.13-4.1-2.38-4.53a2.26,2.26,0,0,0-1.33-.74Z" style="fill:#263238"></path><path d="M326.33,422.12a1.9,1.9,0,0,1-1.38-.73,8.47,8.47,0,0,1-1.77-5.78c.23-2.75,3.35-4.77,3.74-5a1.29,1.29,0,0,1,1.39-.36c.91.42,1,2.08,1,5S328.15,422.12,326.33,422.12Zm1.56-11a2,2,0,0,0-.35.24l-.06.05s-3.11,1.89-3.3,4.25a7.47,7.47,0,0,0,1.5,5,1.07,1.07,0,0,0,.65.41c.73,0,1.94-2.76,1.94-5.91C328.27,413.8,328.27,411.45,327.89,411.15Zm-.67-.14h0Z" style="fill:#263238"></path><path d="M321.51,420.71a1.54,1.54,0,0,1-.69-.18,3.73,3.73,0,0,1-1.84-2.67c0-1,1.34-3.32,1.61-3.79l0-.05a1.07,1.07,0,0,1,1.09-.53c.63.15.87,1,1,1.55.32,1.5.36,4.78-.51,5.44A1.2,1.2,0,0,1,321.51,420.71Zm-.07-6.1a12.38,12.38,0,0,0-1.46,3.25,2.9,2.9,0,0,0,1.29,1.78c.23.12.31.06.34,0a7.88,7.88,0,0,0,.27-3.42,4.72,4.72,0,0,0-.38-1.73Z" style="fill:#263238"></path><path d="M317,391.05a3.7,3.7,0,0,1-1-.14c-1.33-.35-3.18-1.48-3.18-2.69a1.19,1.19,0,0,1,.39-.86c.92-.87,3.41-.77,3.9-.74a.44.44,0,0,1,.25.08c.82.55,2.15,2,1.26,3.54A1.72,1.72,0,0,1,317,391.05Zm-.52-3.45a4.94,4.94,0,0,0-2.59.49.16.16,0,0,0-.07.13c0,.42,1.12,1.38,2.44,1.73.28.07,1.22.28,1.49-.21.55-1-.49-1.87-.84-2.13Z" style="fill:#263238"></path><path d="M322.57,445.72c-1.37,0-2.91-1.7-3.51-2.43-1.35-1.65-2.58-4-2.29-5.47.47-2.33,3.76-5.64,3.9-5.78a.48.48,0,0,1,.11-.09c.23-.12,2.23-1.2,3.72-.7s4.79,4.49,4.54,7.16S325,445.72,322.57,445.72Zm-1.24-12.93c-.41.42-3.2,3.33-3.58,5.23-.19,1,.68,2.93,2.09,4.64,1,1.25,2.1,2.06,2.73,2.06,1.69,0,5.28-4.19,5.48-6.4s-2.79-5.76-3.87-6.12A4.57,4.57,0,0,0,321.33,432.79Z" style="fill:#263238"></path><path d="M316.6,435.1a.48.48,0,0,1-.2,0c-.14-.06-3.52-1.54-2.7-3.73a3.51,3.51,0,0,1,2-2.35c1.05-.33,2.38.07,4.07,1.23a.49.49,0,0,1,.12.7l-2.87,4A.51.51,0,0,1,316.6,435.1Zm-.15-5.23a1.65,1.65,0,0,0-.46.06c-.55.18-1,.7-1.36,1.75s1.11,1.91,1.81,2.29l2.33-3.22A4.73,4.73,0,0,0,316.45,429.87Z" style="fill:#263238"></path><path d="M323.24,429.57c-1.85,0-5.15-.83-5.15-2.49a1,1,0,0,1,.33-.74c.8-.75,3.07-.68,3.68-.65a10.66,10.66,0,0,1,3.25-.2c.41.1.81.52.7,1.37A3.05,3.05,0,0,1,323.24,429.57Zm-1.84-2.9a4,4,0,0,0-2.31.42c0,.54,2.05,1.48,4.15,1.48a1.85,1.85,0,0,0,1.54-1,1.53,1.53,0,0,0,.26-1.12,11.07,11.07,0,0,0-2.81.27h-.13Z" style="fill:#263238"></path><path d="M317,450.6l-.22,0c-1.8-.26-4.59-3.58-5.05-5.22s.21-3.24,1.89-4.92a2.12,2.12,0,0,1,1.52-.64,3.39,3.39,0,0,1,2.09,1.11l.06.08c.08.15,2,3.59,2.46,4.71s-.23,2.86-1,3.89A2.18,2.18,0,0,1,317,450.6Zm-1.92-9.8a1.05,1.05,0,0,0-.75.35c-1.43,1.43-2,2.75-1.64,3.93.41,1.44,3,4.33,4.23,4.51.39.06.8-.36,1-.62a4.1,4.1,0,0,0,.9-2.9c-.4-1-2.13-4.1-2.38-4.54a2.31,2.31,0,0,0-1.33-.73Z" style="fill:#263238"></path><path d="M326.33,455.45a1.9,1.9,0,0,1-1.38-.73,8.47,8.47,0,0,1-1.77-5.78c.23-2.75,3.35-4.77,3.74-5a1.29,1.29,0,0,1,1.39-.36c.91.42,1,2.08,1,5S328.15,455.45,326.33,455.45Zm1.56-11a2,2,0,0,0-.35.24l-.06,0s-3.11,1.9-3.3,4.26a7.47,7.47,0,0,0,1.5,5,1.07,1.07,0,0,0,.65.41c.73,0,1.94-2.76,1.94-5.91C328.27,447.13,328.27,444.78,327.89,444.48Zm-.67-.14h0Z" style="fill:#263238"></path><path d="M321.51,454a1.54,1.54,0,0,1-.69-.18,3.73,3.73,0,0,1-1.84-2.67c0-1,1.34-3.32,1.61-3.79l0,0a1.07,1.07,0,0,1,1.09-.53c.63.15.87,1,1,1.55.32,1.5.36,4.78-.51,5.44A1.2,1.2,0,0,1,321.51,454Zm-.07-6.1a12.38,12.38,0,0,0-1.46,3.25,2.9,2.9,0,0,0,1.29,1.78c.23.11.31.06.34,0a7.88,7.88,0,0,0,.27-3.42,4.66,4.66,0,0,0-.38-1.73Z" style="fill:#263238"></path><path d="M317,424.38a3.7,3.7,0,0,1-1-.14c-1.33-.35-3.18-1.48-3.18-2.69a1.17,1.17,0,0,1,.39-.86c.92-.87,3.41-.77,3.9-.74a.44.44,0,0,1,.25.08c.82.55,2.15,2,1.26,3.54A1.74,1.74,0,0,1,317,424.38Zm-.52-3.45a4.94,4.94,0,0,0-2.59.49.16.16,0,0,0-.07.13c0,.42,1.12,1.37,2.44,1.72.28.08,1.22.29,1.49-.2.55-1-.49-1.87-.84-2.13Z" style="fill:#263238"></path><path d="M304.76,359.58a4.47,4.47,0,0,0-1.17,3.1,3.51,3.51,0,0,0,2.93,3.31c1,0,1.57-4.64,1.37-5.53S304.76,359.58,304.76,359.58Z" style="fill:#7d7d7d"></path><path d="M306.52,366.49a4,4,0,0,1-3.43-3.81,5,5,0,0,1,1.33-3.47.51.51,0,0,1,.34-.13c1,0,3.37.12,3.62,1.28.19.85-.21,4.61-1.1,5.72A1,1,0,0,1,306.52,366.49ZM305,360.08a4,4,0,0,0-.89,2.6,3.06,3.06,0,0,0,2.43,2.81c.5-.35,1.07-4.1.89-4.92A4.87,4.87,0,0,0,305,360.08Z" style="fill:#263238"></path><path d="M302.41,359.58s-2-.44-2,.66,1.57,2.21,1.57,1.55A14,14,0,0,1,302.41,359.58Z" style="fill:#7d7d7d"></path><path d="M301.84,362.49a2.5,2.5,0,0,1-1.89-2.25,1.14,1.14,0,0,1,.42-.91,2.92,2.92,0,0,1,2.15-.24.5.5,0,0,1,.32.23.46.46,0,0,1,.05.38,13.58,13.58,0,0,0-.37,2.09.69.69,0,0,1-.19.5A.65.65,0,0,1,301.84,362.49Zm-.25-2.5a1.13,1.13,0,0,0-.59.12.14.14,0,0,0-.05.13,1.61,1.61,0,0,0,.61,1.06,11.6,11.6,0,0,1,.24-1.3Z" style="fill:#263238"></path><path d="M305.25,368.65s-1.48-3.54-2.64-2.66-2.63,4.43-1.64,5.53,4.11,3.54,4.6,1.55A9.23,9.23,0,0,0,305.25,368.65Z" style="fill:#7d7d7d"></path><path d="M304.68,374.33c-1.53,0-3.61-1.94-4.08-2.47a2.3,2.3,0,0,1-.43-1.81,7.52,7.52,0,0,1,2.14-4.45,1.14,1.14,0,0,1,1-.21c1.19.32,2.21,2.61,2.4,3.07a0,0,0,0,0,0,0,9.79,9.79,0,0,1,.34,4.7,1.36,1.36,0,0,1-1,1.1A1.5,1.5,0,0,1,304.68,374.33Zm-1.67-8a.14.14,0,0,0-.09,0,6.73,6.73,0,0,0-1.76,3.75,1.5,1.5,0,0,0,.18,1.05c.86,1,2.73,2.31,3.47,2.13.07,0,.2-.05.28-.37a8.9,8.9,0,0,0-.31-4.13c-.39-.91-1.2-2.32-1.73-2.46Z" style="fill:#263238"></path><path d="M307.5,368.21s-.39,4,.39,4,1.57-4.87,1-5.75S307.5,368.21,307.5,368.21Z" style="fill:#7d7d7d"></path><path d="M307.89,372.69a.74.74,0,0,1-.55-.26c-.61-.68-.44-3.21-.34-4.27,0,0,0-.06,0-.09.3-1,.79-2.2,1.48-2.31a.8.8,0,0,1,.79.4c.65,1,.1,4.66-.57,5.89A1,1,0,0,1,307.89,372.69Zm.2-.92h0ZM308,368.3a14.92,14.92,0,0,0,0,3.05,11.71,11.71,0,0,0,.57-4.38A7,7,0,0,0,308,368.3Z" style="fill:#263238"></path><path d="M306,375.41s-3.92.64-4.4,1.7.87,3.83,1.54,4.35,4.55-4.19,4.06-5.17S306,375.41,306,375.41Z" style="fill:#7d7d7d"></path><path d="M303.29,382a.7.7,0,0,1-.43-.15c-.77-.61-2.3-3.61-1.69-5s3.8-1.82,4.78-2h0a1.76,1.76,0,0,1,1.71,1.14c.63,1.24-2.23,4.54-3.29,5.41A1.94,1.94,0,0,1,303.29,382Zm.19-.94h0Zm2.61-5.16c-1.76.29-3.79.92-4,1.41-.34.74.71,3,1.29,3.65.95-.4,3.52-3.76,3.4-4.49-.28-.54-.6-.57-.68-.57Z" style="fill:#263238"></path><path d="M304.76,383.65a4.47,4.47,0,0,0-1.17,3.1,3.52,3.52,0,0,0,2.93,3.32c1,0,1.57-4.65,1.37-5.53S304.76,383.65,304.76,383.65Z" style="fill:#7d7d7d"></path><path d="M306.52,390.57a4,4,0,0,1-3.43-3.82,4.88,4.88,0,0,1,1.33-3.46.48.48,0,0,1,.34-.14c1,0,3.37.12,3.62,1.28.19.85-.21,4.61-1.1,5.72A1,1,0,0,1,306.52,390.57ZM305,384.15a4,4,0,0,0-.89,2.6,3.07,3.07,0,0,0,2.43,2.82c.5-.36,1.07-4.11.89-4.93A4.87,4.87,0,0,0,305,384.15Z" style="fill:#263238"></path><path d="M302.41,383.65s-2-.44-2,.66,1.57,2.22,1.57,1.55A14,14,0,0,1,302.41,383.65Z" style="fill:#7d7d7d"></path><path d="M301.84,386.56a2.5,2.5,0,0,1-1.89-2.25,1.14,1.14,0,0,1,.42-.91,3,3,0,0,1,2.15-.24.5.5,0,0,1,.32.23.46.46,0,0,1,.05.38,13.58,13.58,0,0,0-.37,2.09.69.69,0,0,1-.19.5A.65.65,0,0,1,301.84,386.56Zm-.25-2.5a1.13,1.13,0,0,0-.59.12.14.14,0,0,0-.05.13,1.61,1.61,0,0,0,.61,1.06,11.6,11.6,0,0,1,.24-1.3Z" style="fill:#263238"></path><path d="M305.25,392.72s-1.48-3.54-2.64-2.65S300,394.49,301,395.6s4.11,3.54,4.6,1.54A9.23,9.23,0,0,0,305.25,392.72Z" style="fill:#7d7d7d"></path><path d="M304.68,398.4c-1.53,0-3.61-1.94-4.08-2.47a2.3,2.3,0,0,1-.43-1.81,7.52,7.52,0,0,1,2.14-4.45,1.14,1.14,0,0,1,1-.21c1.19.32,2.21,2.61,2.4,3.07a0,0,0,0,0,0,0,9.83,9.83,0,0,1,.34,4.7,1.36,1.36,0,0,1-1,1.1A1.5,1.5,0,0,1,304.68,398.4Zm-1.67-8a.14.14,0,0,0-.09,0,6.73,6.73,0,0,0-1.76,3.76,1.48,1.48,0,0,0,.18,1c.86,1,2.73,2.31,3.47,2.13.07,0,.2-.05.28-.37a8.92,8.92,0,0,0-.31-4.13c-.39-.91-1.2-2.32-1.73-2.46Z" style="fill:#263238"></path><path d="M307.5,392.28s-.39,4,.39,4,1.57-4.87,1-5.75S307.5,392.28,307.5,392.28Z" style="fill:#7d7d7d"></path><path d="M307.89,396.76a.76.76,0,0,1-.55-.25c-.61-.68-.44-3.22-.34-4.28,0,0,0-.06,0-.09.3-1,.79-2.2,1.48-2.31a.8.8,0,0,1,.79.4c.65,1,.1,4.66-.57,5.89A1,1,0,0,1,307.89,396.76Zm.2-.92h0Zm-.09-3.47a14.92,14.92,0,0,0,0,3.05,11.71,11.71,0,0,0,.57-4.38A7,7,0,0,0,308,392.37Z" style="fill:#263238"></path><path d="M306,399.48s-3.92.64-4.4,1.7.87,3.83,1.54,4.35,4.55-4.19,4.06-5.17S306,399.48,306,399.48Z" style="fill:#7d7d7d"></path><path d="M303.29,406.08a.7.7,0,0,1-.43-.15c-.77-.61-2.3-3.61-1.69-4.95s3.8-1.83,4.78-2h0a1.76,1.76,0,0,1,1.71,1.14c.63,1.24-2.23,4.54-3.29,5.41A1.94,1.94,0,0,1,303.29,406.08Zm.19-.94h0Zm2.61-5.16c-1.76.29-3.79.92-4,1.41-.34.74.71,3,1.29,3.65.95-.4,3.52-3.76,3.4-4.49C306.49,400,306.19,400,306.09,400Z" style="fill:#263238"></path><path d="M304.76,407.72a4.47,4.47,0,0,0-1.17,3.1,3.52,3.52,0,0,0,2.93,3.32c1,0,1.57-4.65,1.37-5.53S304.76,407.72,304.76,407.72Z" style="fill:#7d7d7d"></path><path d="M306.52,414.64a4,4,0,0,1-3.43-3.82,4.91,4.91,0,0,1,1.33-3.46.48.48,0,0,1,.34-.14c1,0,3.37.13,3.62,1.28.19.85-.21,4.61-1.1,5.72A.94.94,0,0,1,306.52,414.64ZM305,408.22a4,4,0,0,0-.89,2.6,3.07,3.07,0,0,0,2.43,2.82c.5-.36,1.07-4.11.89-4.93A4.87,4.87,0,0,0,305,408.22Z" style="fill:#263238"></path><path d="M302.41,407.72s-2-.44-2,.67,1.57,2.21,1.57,1.54A14,14,0,0,1,302.41,407.72Z" style="fill:#7d7d7d"></path><path d="M301.84,410.63a2.5,2.5,0,0,1-1.89-2.25,1.16,1.16,0,0,1,.42-.91,3,3,0,0,1,2.15-.24.54.54,0,0,1,.32.23.46.46,0,0,1,.05.38,13.58,13.58,0,0,0-.37,2.09.69.69,0,0,1-.19.5A.65.65,0,0,1,301.84,410.63Zm-.25-2.5a1,1,0,0,0-.59.13s-.05,0-.05.12a1.61,1.61,0,0,0,.61,1.06,12,12,0,0,1,.24-1.3Z" style="fill:#263238"></path><path d="M305.25,416.79s-1.48-3.54-2.64-2.65-2.63,4.42-1.64,5.53,4.11,3.54,4.6,1.55A9.26,9.26,0,0,0,305.25,416.79Z" style="fill:#7d7d7d"></path><path d="M304.68,422.47c-1.53,0-3.61-1.94-4.08-2.47a2.3,2.3,0,0,1-.43-1.81,7.58,7.58,0,0,1,2.14-4.45,1.1,1.1,0,0,1,1-.2c1.19.31,2.21,2.6,2.4,3.06a0,0,0,0,0,0,0,9.86,9.86,0,0,1,.34,4.71,1.36,1.36,0,0,1-1,1.09A1.5,1.5,0,0,1,304.68,422.47Zm-1.67-8a.14.14,0,0,0-.09,0,6.73,6.73,0,0,0-1.76,3.76,1.48,1.48,0,0,0,.18,1c.86,1,2.73,2.31,3.47,2.13.07,0,.2,0,.28-.36a8.88,8.88,0,0,0-.31-4.13c-.39-.92-1.2-2.33-1.73-2.47Z" style="fill:#263238"></path><path d="M307.5,416.35s-.39,4,.39,4,1.57-4.87,1-5.75S307.5,416.35,307.5,416.35Z" style="fill:#7d7d7d"></path><path d="M307.89,420.83a.76.76,0,0,1-.55-.25c-.61-.68-.44-3.22-.34-4.28,0,0,0-.06,0-.09.3-1,.79-2.2,1.48-2.3a.77.77,0,0,1,.79.39c.65,1,.1,4.66-.57,5.9A1,1,0,0,1,307.89,420.83Zm.2-.92h0Zm-.09-3.46a14.82,14.82,0,0,0,0,3,11.71,11.71,0,0,0,.57-4.38A7.12,7.12,0,0,0,308,416.45Z" style="fill:#263238"></path><path d="M306,423.55s-3.92.64-4.4,1.7.87,3.83,1.54,4.36,4.55-4.2,4.06-5.18S306,423.55,306,423.55Z" style="fill:#7d7d7d"></path><path d="M303.29,430.15a.65.65,0,0,1-.43-.15c-.77-.61-2.3-3.61-1.69-4.95s3.8-1.83,4.78-2h0a1.78,1.78,0,0,1,1.71,1.14c.63,1.24-2.23,4.54-3.29,5.41A1.94,1.94,0,0,1,303.29,430.15Zm.19-.94h0Zm2.61-5.16c-1.76.29-3.79.92-4,1.41-.34.75.71,3,1.29,3.65.95-.4,3.52-3.76,3.4-4.48C306.49,424.08,306.19,424.07,306.09,424.05Z" style="fill:#263238"></path><path d="M304.76,431.79a4.47,4.47,0,0,0-1.17,3.1,3.52,3.52,0,0,0,2.93,3.32c1,0,1.57-4.65,1.37-5.53S304.76,431.79,304.76,431.79Z" style="fill:#7d7d7d"></path><path d="M306.52,438.71a4,4,0,0,1-3.43-3.82,4.91,4.91,0,0,1,1.33-3.46.48.48,0,0,1,.34-.14c1,0,3.37.13,3.62,1.28.19.85-.21,4.61-1.1,5.73A1,1,0,0,1,306.52,438.71ZM305,432.29a4,4,0,0,0-.89,2.6,3.07,3.07,0,0,0,2.43,2.82c.5-.36,1.07-4.11.89-4.92A4.72,4.72,0,0,0,305,432.29Z" style="fill:#263238"></path><path d="M302.41,431.79s-2-.44-2,.67S302,434.67,302,434A14,14,0,0,1,302.41,431.79Z" style="fill:#7d7d7d"></path><path d="M301.84,434.71a2.51,2.51,0,0,1-1.89-2.25,1.16,1.16,0,0,1,.42-.92,3,3,0,0,1,2.15-.24.54.54,0,0,1,.32.23.46.46,0,0,1,.05.38,13.58,13.58,0,0,0-.37,2.09.69.69,0,0,1-.19.5A.66.66,0,0,1,301.84,434.71Zm-.25-2.5a1,1,0,0,0-.59.12s-.05,0-.05.13a1.58,1.58,0,0,0,.61,1.05,12.51,12.51,0,0,1,.24-1.3Z" style="fill:#263238"></path><path d="M305.25,440.86s-1.48-3.54-2.64-2.65-2.63,4.42-1.64,5.53,4.11,3.54,4.6,1.55A9.28,9.28,0,0,0,305.25,440.86Z" style="fill:#7d7d7d"></path><path d="M304.68,446.54c-1.53,0-3.61-1.94-4.08-2.47a2.29,2.29,0,0,1-.43-1.81,7.58,7.58,0,0,1,2.14-4.45,1.1,1.1,0,0,1,1-.2c1.19.31,2.21,2.6,2.4,3.06a0,0,0,0,0,0,0,9.86,9.86,0,0,1,.34,4.71,1.36,1.36,0,0,1-1,1.09A1.5,1.5,0,0,1,304.68,446.54Zm-1.67-8-.09,0a6.73,6.73,0,0,0-1.76,3.76,1.52,1.52,0,0,0,.18,1.05c.86,1,2.73,2.31,3.47,2.12.07,0,.2,0,.28-.36a8.88,8.88,0,0,0-.31-4.13c-.39-.92-1.2-2.33-1.73-2.47Z" style="fill:#263238"></path><path d="M307.5,440.42s-.39,4,.39,4,1.57-4.87,1-5.75S307.5,440.42,307.5,440.42Z" style="fill:#7d7d7d"></path><path d="M307.89,444.9a.76.76,0,0,1-.55-.25c-.61-.68-.44-3.22-.34-4.28,0,0,0-.06,0-.09.3-1,.79-2.2,1.48-2.3a.79.79,0,0,1,.79.39c.65,1,.1,4.66-.57,5.9A1,1,0,0,1,307.89,444.9Zm.2-.92h0Zm-.09-3.46a14.82,14.82,0,0,0,0,3,11.71,11.71,0,0,0,.57-4.38A7.12,7.12,0,0,0,308,440.52Z" style="fill:#263238"></path><path d="M306,447.63s-3.92.63-4.4,1.69.87,3.84,1.54,4.36,4.55-4.2,4.06-5.18S306,447.63,306,447.63Z" style="fill:#7d7d7d"></path><path d="M303.29,454.22a.65.65,0,0,1-.43-.15c-.77-.6-2.3-3.61-1.69-4.95s3.8-1.83,4.78-2h0a1.76,1.76,0,0,1,1.71,1.15c.63,1.23-2.23,4.53-3.29,5.4A1.94,1.94,0,0,1,303.29,454.22Zm.19-.94h0Zm2.61-5.16c-1.76.29-3.79.93-4,1.41-.34.75.71,3,1.29,3.66.95-.41,3.52-3.77,3.4-4.49C306.48,448.14,306.12,448.12,306.09,448.12Z" style="fill:#263238"></path><path d="M183.93,284.92H151.2v11.26h32.73c1.34,0,2.42-2.52,2.42-5.63S185.27,284.92,183.93,284.92Z" style="fill:#fff"></path><path d="M183.93,296.68H150.7V284.42h33.23c1.66,0,2.92,2.64,2.92,6.13S185.59,296.68,183.93,296.68Zm-32.23-1h32.23c.9,0,1.92-2.19,1.92-5.13s-1-5.13-1.92-5.13H151.7Z" style="fill:#263238"></path><path d="M153.63,290.55c0,3.11-1.09,5.63-2.43,5.63s-2.43-2.52-2.43-5.63,1.09-5.63,2.43-5.63S153.63,287.44,153.63,290.55Z" style="fill:#fff"></path><path d="M151.2,296.68c-1.67,0-2.93-2.63-2.93-6.13s1.26-6.13,2.93-6.13,2.93,2.64,2.93,6.13S152.87,296.68,151.2,296.68Zm0-11.26c-.91,0-1.93,2.2-1.93,5.13s1,5.13,1.93,5.13,1.93-2.19,1.93-5.13S152.11,285.42,151.2,285.42Z" style="fill:#263238"></path><path d="M203.22,257.8H171.15v11.26h32.07c1.34,0,2.43-2.52,2.43-5.63S204.56,257.8,203.22,257.8Z" style="fill:#fff"></path><path d="M203.22,269.56H170.65V257.3h32.57c1.67,0,2.93,2.64,2.93,6.13S204.89,269.56,203.22,269.56Zm-31.57-1h31.57c.91,0,1.93-2.19,1.93-5.13s-1-5.13-1.93-5.13H171.65Z" style="fill:#263238"></path><path d="M173.58,263.43c0,3.11-1.09,5.63-2.43,5.63s-2.42-2.52-2.42-5.63,1.08-5.63,2.42-5.63S173.58,260.32,173.58,263.43Z" style="fill:#fff"></path><path d="M171.15,269.56c-1.67,0-2.92-2.63-2.92-6.13s1.25-6.13,2.92-6.13,2.93,2.64,2.93,6.13S172.82,269.56,171.15,269.56Zm0-11.26c-.91,0-1.92,2.2-1.92,5.13s1,5.13,1.92,5.13,1.93-2.19,1.93-5.13S172.06,258.3,171.15,258.3Z" style="fill:#263238"></path><path d="M170.37,305.81H136.31v11.26h34.06c1.34,0,2.43-2.52,2.43-5.63S171.71,305.81,170.37,305.81Z" style="fill:#fff"></path><path d="M170.37,317.57H135.81V305.31h34.56c1.67,0,2.93,2.64,2.93,6.13S172,317.57,170.37,317.57Zm-33.56-1h33.56c.91,0,1.93-2.19,1.93-5.13s-1-5.13-1.93-5.13H136.81Z" style="fill:#263238"></path><path d="M138.74,311.44c0,3.11-1.09,5.63-2.43,5.63s-2.42-2.52-2.42-5.63,1.09-5.63,2.42-5.63S138.74,308.33,138.74,311.44Z" style="fill:#fff"></path><path d="M136.31,317.57c-1.66,0-2.92-2.64-2.92-6.13s1.26-6.13,2.92-6.13,2.93,2.64,2.93,6.13S138,317.57,136.31,317.57Zm0-11.26c-.9,0-1.92,2.19-1.92,5.13s1,5.13,1.92,5.13,1.93-2.19,1.93-5.13S137.22,306.31,136.31,306.31Z" style="fill:#263238"></path><path d="M154.52,326.7H120.83V338h33.69c1.34,0,2.42-2.52,2.42-5.63S155.86,326.7,154.52,326.7Z" style="fill:#fff"></path><path d="M154.52,338.46H120.33V326.2h34.19c1.66,0,2.92,2.63,2.92,6.13S156.18,338.46,154.52,338.46Zm-33.19-1h33.19c.91,0,1.92-2.2,1.92-5.13s-1-5.13-1.92-5.13H121.33Z" style="fill:#263238"></path><path d="M123.26,332.33c0,3.11-1.09,5.63-2.43,5.63s-2.42-2.52-2.42-5.63,1.08-5.63,2.42-5.63S123.26,329.22,123.26,332.33Z" style="fill:#fff"></path><path d="M120.83,338.46c-1.67,0-2.92-2.64-2.92-6.13s1.25-6.13,2.92-6.13,2.93,2.63,2.93,6.13S122.5,338.46,120.83,338.46Zm0-11.26c-.91,0-1.92,2.19-1.92,5.13s1,5.13,1.92,5.13,1.93-2.2,1.93-5.13S121.74,327.2,120.83,327.2Z" style="fill:#263238"></path><path d="M224.11,284.92H192v11.26h32.07c1.34,0,2.43-2.52,2.43-5.63S225.45,284.92,224.11,284.92Z" style="fill:#fff"></path><path d="M224.11,296.68H191.54V284.42h32.57c1.67,0,2.93,2.64,2.93,6.13S225.78,296.68,224.11,296.68Zm-31.57-1h31.57c.91,0,1.93-2.19,1.93-5.13s-1-5.13-1.93-5.13H192.54Z" style="fill:#263238"></path><path d="M194.47,290.55c0,3.11-1.09,5.63-2.43,5.63s-2.42-2.52-2.42-5.63,1.08-5.63,2.42-5.63S194.47,287.44,194.47,290.55Z" style="fill:#fff"></path><path d="M192,296.68c-1.67,0-2.92-2.63-2.92-6.13s1.25-6.13,2.92-6.13,2.93,2.64,2.93,6.13S193.71,296.68,192,296.68Zm0-11.26c-.91,0-1.92,2.2-1.92,5.13s1,5.13,1.92,5.13,1.93-2.19,1.93-5.13S193,285.42,192,285.42Z" style="fill:#263238"></path><path d="M238.66,305.81H206.58v11.26h32.08c1.33,0,2.42-2.52,2.42-5.63S240,305.81,238.66,305.81Z" style="fill:#fff"></path><path d="M238.66,317.57H206.08V305.31h32.58c1.66,0,2.92,2.64,2.92,6.13S240.32,317.57,238.66,317.57Zm-31.58-1h31.58c.9,0,1.92-2.19,1.92-5.13s-1-5.13-1.92-5.13H207.08Z" style="fill:#263238"></path><path d="M209,311.44c0,3.11-1.09,5.63-2.43,5.63s-2.42-2.52-2.42-5.63,1.08-5.63,2.42-5.63S209,308.33,209,311.44Z" style="fill:#fff"></path><path d="M206.58,317.57c-1.66,0-2.92-2.64-2.92-6.13s1.26-6.13,2.92-6.13,2.93,2.64,2.93,6.13S208.25,317.57,206.58,317.57Zm0-11.26c-.91,0-1.92,2.19-1.92,5.13s1,5.13,1.92,5.13,1.93-2.19,1.93-5.13S207.49,306.31,206.58,306.31Z" style="fill:#263238"></path><path d="M253.63,326.7H221.56V338h32.07c1.34,0,2.43-2.52,2.43-5.63S255,326.7,253.63,326.7Z" style="fill:#fff"></path><path d="M253.63,338.46H221.06V326.2h32.57c1.67,0,2.93,2.63,2.93,6.13S255.3,338.46,253.63,338.46Zm-31.57-1h31.57c.91,0,1.93-2.2,1.93-5.13s-1-5.13-1.93-5.13H222.06Z" style="fill:#263238"></path><path d="M224,332.33c0,3.11-1.09,5.63-2.43,5.63s-2.42-2.52-2.42-5.63,1.08-5.63,2.42-5.63S224,329.22,224,332.33Z" style="fill:#fff"></path><path d="M221.56,338.46c-1.67,0-2.92-2.64-2.92-6.13s1.25-6.13,2.92-6.13,2.93,2.63,2.93,6.13S223.23,338.46,221.56,338.46Zm0-11.26c-.91,0-1.92,2.19-1.92,5.13s1,5.13,1.92,5.13,1.93-2.2,1.93-5.13S222.47,327.2,221.56,327.2Z" style="fill:#263238"></path><rect x="237.34" y="339.09" width="191.35" height="7.83" style="fill:#fff"></rect><path d="M428.68,347.42H237.34a.5.5,0,0,1-.5-.5v-7.83a.5.5,0,0,1,.5-.5H428.68a.5.5,0,0,1,.5.5v7.83A.5.5,0,0,1,428.68,347.42Zm-190.84-1H428.18v-6.83H237.84Z" style="fill:#263238"></path><polygon points="237.34 339.09 171.34 248.95 104.88 339.09 104.88 346.92 171.34 256.78 237.34 346.92 237.34 339.09" style="fill:#fff"></polygon><path d="M104.88,347.42l-.15,0a.5.5,0,0,1-.35-.48v-7.83a.54.54,0,0,1,.1-.3l66.46-90.14a.48.48,0,0,1,.4-.2h0a.48.48,0,0,1,.4.2l66,90.14a.54.54,0,0,1,.1.3v7.83a.5.5,0,0,1-.35.48.52.52,0,0,1-.56-.18l-65.59-89.59-66.06,89.59A.48.48,0,0,1,104.88,347.42Zm.5-8.17v6.15l65.56-88.92a.51.51,0,0,1,.4-.2h0a.49.49,0,0,1,.4.21l65.1,88.9v-6.14l-65.5-89.46Z" style="fill:#263238"></path><polygon points="428.68 339.09 237.34 339.09 171.34 248.95 363.15 248.95 428.68 339.09" style="fill:#fff"></polygon><path d="M428.68,339.59H237.34a.52.52,0,0,1-.41-.21l-66-90.14a.49.49,0,0,1,0-.52.48.48,0,0,1,.44-.27H363.15a.48.48,0,0,1,.4.2l65.54,90.14a.51.51,0,0,1,0,.53A.52.52,0,0,1,428.68,339.59Zm-191.09-1H427.7l-64.81-89.14H172.33Z" style="fill:#263238"></path><path d="M366.24,255H175.7a.5.5,0,0,1-.5-.5.51.51,0,0,1,.5-.5H366.24a.5.5,0,0,1,.5.5A.5.5,0,0,1,366.24,255Z" style="fill:#263238"></path><path d="M369.08,258.85H178.54a.5.5,0,1,1,0-1H369.08a.5.5,0,1,1,0,1Z" style="fill:#263238"></path><path d="M371.92,262.67H181.38a.5.5,0,0,1-.5-.5.5.5,0,0,1,.5-.5H371.92a.5.5,0,0,1,.5.5A.51.51,0,0,1,371.92,262.67Z" style="fill:#263238"></path><path d="M374.75,266.48H184.21a.5.5,0,0,1-.5-.5.5.5,0,0,1,.5-.5H374.75a.5.5,0,0,1,.5.5A.5.5,0,0,1,374.75,266.48Z" style="fill:#263238"></path><path d="M377.59,270.3H187.05a.5.5,0,0,1,0-1H377.59a.5.5,0,0,1,0,1Z" style="fill:#263238"></path><path d="M380.42,274.12H189.88a.51.51,0,0,1-.5-.5.5.5,0,0,1,.5-.5H380.42a.5.5,0,0,1,.5.5A.5.5,0,0,1,380.42,274.12Z" style="fill:#263238"></path><path d="M383.26,277.93H192.72a.5.5,0,0,1-.5-.5.5.5,0,0,1,.5-.5H383.26a.51.51,0,0,1,.5.5A.5.5,0,0,1,383.26,277.93Z" style="fill:#263238"></path><path d="M386.09,281.75H195.55a.51.51,0,0,1-.5-.5.5.5,0,0,1,.5-.5H386.09a.5.5,0,0,1,.5.5A.5.5,0,0,1,386.09,281.75Z" style="fill:#263238"></path><path d="M388.93,285.56H198.39a.5.5,0,0,1-.5-.5.5.5,0,0,1,.5-.5H388.93a.51.51,0,0,1,.5.5A.5.5,0,0,1,388.93,285.56Z" style="fill:#263238"></path><path d="M391.76,289.38H201.22a.5.5,0,0,1,0-1H391.76a.5.5,0,0,1,0,1Z" style="fill:#263238"></path><path d="M394.6,293.2H204.06a.5.5,0,0,1-.5-.5.5.5,0,0,1,.5-.5H394.6a.5.5,0,0,1,.5.5A.51.51,0,0,1,394.6,293.2Z" style="fill:#263238"></path><path d="M397,297H206.45a.5.5,0,0,1-.5-.5.5.5,0,0,1,.5-.5H397a.5.5,0,0,1,.5.5A.5.5,0,0,1,397,297Z" style="fill:#263238"></path><path d="M399.83,300.83H209.29a.5.5,0,0,1,0-1H399.83a.5.5,0,0,1,0,1Z" style="fill:#263238"></path><path d="M402.66,304.65H212.12a.5.5,0,0,1-.5-.5.5.5,0,0,1,.5-.5H402.66a.5.5,0,0,1,.5.5A.5.5,0,0,1,402.66,304.65Z" style="fill:#263238"></path><path d="M405.5,308.46H215a.5.5,0,0,1-.5-.5.5.5,0,0,1,.5-.5H405.5a.51.51,0,0,1,.5.5A.5.5,0,0,1,405.5,308.46Z" style="fill:#263238"></path><path d="M408.33,312.28H217.79a.51.51,0,0,1-.5-.5.5.5,0,0,1,.5-.5H408.33a.5.5,0,0,1,.5.5A.5.5,0,0,1,408.33,312.28Z" style="fill:#263238"></path><path d="M411,316.09H220.48a.5.5,0,0,1-.5-.5.5.5,0,0,1,.5-.5H411a.51.51,0,0,1,.5.5A.5.5,0,0,1,411,316.09Z" style="fill:#263238"></path><path d="M413.71,319.91H223.17a.5.5,0,0,1,0-1H413.71a.5.5,0,0,1,0,1Z" style="fill:#263238"></path><path d="M416.84,323.73H226.3a.5.5,0,0,1-.5-.5.5.5,0,0,1,.5-.5H416.84a.5.5,0,0,1,.5.5A.51.51,0,0,1,416.84,323.73Z" style="fill:#263238"></path><path d="M419.52,327.54H229a.5.5,0,0,1-.5-.5.5.5,0,0,1,.5-.5H419.52a.5.5,0,0,1,.5.5A.5.5,0,0,1,419.52,327.54Z" style="fill:#263238"></path><path d="M422.06,331.36H231.52a.5.5,0,1,1,0-1H422.06a.5.5,0,1,1,0,1Z" style="fill:#263238"></path><path d="M425.2,335.18H234.66a.5.5,0,0,1-.5-.5.5.5,0,0,1,.5-.5H425.2a.5.5,0,0,1,.5.5A.51.51,0,0,1,425.2,335.18Z" style="fill:#263238"></path><rect x="197.05" y="367.03" width="30.56" height="54.47" style="fill:#fff"></rect><path d="M228.11,422H196.55V366.53h31.56Zm-30.56-1h29.56V367.53H197.55Z" style="fill:#263238"></path><rect x="198.73" y="370.03" width="27.19" height="48.46" style="fill:#263238"></rect><rect x="211.33" y="365.9" width="2.01" height="27.22" transform="translate(-167.18 591.84) rotate(-90)" style="fill:#fff"></rect><path d="M226.44,381H198.22v-3h28.22Zm-27.22-1h26.22v-1H199.22Z" style="fill:#263238"></path><rect x="211.33" y="375.6" width="2.01" height="27.22" transform="translate(-176.89 601.54) rotate(-90)" style="fill:#fff"></rect><path d="M226.44,390.72H198.22v-3h28.22Zm-27.22-1h26.22v-1H199.22Z" style="fill:#263238"></path><rect x="211.33" y="385.3" width="2.01" height="27.22" transform="translate(-186.59 611.24) rotate(-90)" style="fill:#fff"></rect><path d="M226.44,400.42H198.22v-3h28.22Zm-27.22-1h26.22v-1H199.22Z" style="fill:#263238"></path><rect x="211.33" y="395" width="2.01" height="27.22" transform="translate(-196.29 620.94) rotate(-90)" style="fill:#fff"></rect><path d="M226.44,410.12H198.22v-3h28.22Zm-27.22-1h26.22v-1H199.22Z" style="fill:#263238"></path><rect x="210.61" y="370.03" width="3.44" height="48.46" transform="translate(424.66 788.53) rotate(180)" style="fill:#fff"></rect><path d="M214.55,419h-4.44V369.53h4.44Zm-3.44-1h2.44V370.53h-2.44Z" style="fill:#263238"></path><rect x="145.16" y="367.03" width="13.92" height="54.47" style="fill:#fff"></rect><path d="M159.58,422H144.66V366.53h14.92Zm-13.92-1h12.92V367.53H145.66Z" style="fill:#263238"></path><rect x="145.93" y="370.03" width="12.38" height="48.46" style="fill:#263238"></rect><rect x="151.12" y="373.31" width="2.01" height="12.4" transform="translate(-227.39 531.64) rotate(-90)" style="fill:#fff"></rect><path d="M158.82,381h-13.4v-3h13.4Zm-12.4-1h11.4v-1h-11.4Z" style="fill:#263238"></path><rect x="151.12" y="383.01" width="2.01" height="12.4" transform="translate(-237.09 541.34) rotate(-90)" style="fill:#fff"></rect><path d="M158.82,390.72h-13.4v-3h13.4Zm-12.4-1h11.4v-1h-11.4Z" style="fill:#263238"></path><rect x="151.12" y="392.72" width="2.01" height="12.4" transform="translate(-246.79 551.04) rotate(-90)" style="fill:#fff"></rect><path d="M158.82,400.42h-13.4v-3h13.4Zm-12.4-1h11.4v-1h-11.4Z" style="fill:#263238"></path><rect x="151.12" y="402.42" width="2.01" height="12.4" transform="translate(-256.49 560.74) rotate(-90)" style="fill:#fff"></rect><path d="M158.82,410.12h-13.4v-3h13.4Zm-12.4-1h11.4v-1h-11.4Z" style="fill:#263238"></path><rect x="151.34" y="370.03" width="1.57" height="48.46" transform="translate(304.25 788.53) rotate(180)" style="fill:#fff"></rect><path d="M153.41,419h-2.57V369.53h2.57Zm-1.57-1h.57V370.53h-.57Z" style="fill:#263238"></path><rect x="164.51" y="367.09" width="26.73" height="84.94" style="fill:#fff"></rect><path d="M191.74,452.53H164V366.59h27.73Zm-26.73-1h25.73V367.59H165Z" style="fill:#263238"></path><rect x="166.44" y="370.19" width="22.86" height="10.85" style="fill:#263238"></rect><rect x="166.44" y="384.52" width="22.86" height="67.51" style="fill:#AA000E"></rect><path d="M189.8,452.53H165.94V384H189.8Zm-22.86-1H188.8V385H166.94Z" style="fill:#263238"></path><rect x="168.38" y="387.23" width="18.59" height="23.24" style="fill:#263238"></rect><polygon points="186.11 434.63 186.11 451.94 187.84 451.94 187.84 435.67 231.55 435.67 231.55 451.94 233.28 451.94 233.28 434.63 186.11 434.63" style="fill:#AA000E"></polygon><path d="M233.78,452.44h-2.73V436.17H188.34v16.27h-2.73V434.13h48.17Zm-1.73-1h.73V435.13H186.61v16.31h.73V435.17h44.71Z" style="fill:#263238"></path><rect x="191.72" y="435.99" width="1.7" height="16.05" style="fill:#AA000E"></rect><path d="M193.93,452.54h-2.71V435.49h2.71Zm-1.71-1h.71V436.49h-.71Z" style="fill:#263238"></path><rect x="196.62" y="435.99" width="1.7" height="16.05" style="fill:#AA000E"></rect><path d="M198.82,452.54h-2.7V435.49h2.7Zm-1.7-1h.7V436.49h-.7Z" style="fill:#263238"></path><rect x="201.51" y="435.99" width="1.7" height="16.05" style="fill:#AA000E"></rect><path d="M203.71,452.54H201V435.49h2.7Zm-1.7-1h.7V436.49H202Z" style="fill:#263238"></path><rect x="206.4" y="435.99" width="1.7" height="16.05" style="fill:#AA000E"></rect><path d="M208.6,452.54h-2.7V435.49h2.7Zm-1.7-1h.7V436.49h-.7Z" style="fill:#263238"></path><rect x="211.3" y="435.99" width="1.7" height="16.05" style="fill:#AA000E"></rect><path d="M213.5,452.54h-2.7V435.49h2.7Zm-1.7-1h.7V436.49h-.7Z" style="fill:#263238"></path><rect x="216.19" y="435.99" width="1.7" height="16.05" style="fill:#AA000E"></rect><path d="M218.39,452.54h-2.7V435.49h2.7Zm-1.7-1h.7V436.49h-.7Z" style="fill:#263238"></path><rect x="221.08" y="435.99" width="1.7" height="16.05" style="fill:#AA000E"></rect><path d="M223.28,452.54h-2.7V435.49h2.7Zm-1.7-1h.7V436.49h-.7Z" style="fill:#263238"></path><rect x="225.98" y="435.99" width="1.7" height="16.05" style="fill:#AA000E"></rect><path d="M228.18,452.54h-2.7V435.49h2.7Zm-1.7-1h.7V436.49h-.7Z" style="fill:#263238"></path><rect x="186.11" y="434.63" width="47.18" height="3.09" style="fill:#AA000E"></rect><path d="M233.78,438.22H185.61v-4.09h48.17Zm-47.17-1h46.17v-2.09H186.61Z" style="fill:#263238"></path><polygon points="92.72 434.63 92.72 451.94 94.45 451.94 94.45 435.67 138.17 435.67 138.17 451.94 139.9 451.94 139.9 434.63 92.72 434.63" style="fill:#AA000E"></polygon><path d="M140.4,452.44h-2.73V436.17H95v16.27H92.22V434.13H140.4Zm-1.73-1h.73V435.13H93.22v16.31H94V435.17h44.71Z" style="fill:#263238"></path><rect x="98.34" y="435.99" width="1.7" height="16.05" style="fill:#AA000E"></rect><path d="M100.54,452.54h-2.7V435.49h2.7Zm-1.7-1h.7V436.49h-.7Z" style="fill:#263238"></path><rect x="103.23" y="435.99" width="1.7" height="16.05" style="fill:#AA000E"></rect><path d="M105.43,452.54h-2.7V435.49h2.7Zm-1.7-1h.7V436.49h-.7Z" style="fill:#263238"></path><rect x="108.13" y="435.99" width="1.7" height="16.05" style="fill:#AA000E"></rect><path d="M110.33,452.54h-2.7V435.49h2.7Zm-1.7-1h.7V436.49h-.7Z" style="fill:#263238"></path><rect x="113.02" y="435.99" width="1.7" height="16.05" style="fill:#AA000E"></rect><path d="M115.22,452.54h-2.7V435.49h2.7Zm-1.7-1h.7V436.49h-.7Z" style="fill:#263238"></path><rect x="117.91" y="435.99" width="1.7" height="16.05" style="fill:#AA000E"></rect><path d="M120.11,452.54h-2.7V435.49h2.7Zm-1.7-1h.7V436.49h-.7Z" style="fill:#263238"></path><rect x="122.81" y="435.99" width="1.7" height="16.05" style="fill:#AA000E"></rect><path d="M125,452.54h-2.7V435.49H125Zm-1.7-1h.7V436.49h-.7Z" style="fill:#263238"></path><rect x="127.7" y="435.99" width="1.7" height="16.05" style="fill:#AA000E"></rect><path d="M129.9,452.54h-2.7V435.49h2.7Zm-1.7-1h.7V436.49h-.7Z" style="fill:#263238"></path><rect x="132.59" y="435.99" width="1.7" height="16.05" style="fill:#AA000E"></rect><path d="M134.79,452.54h-2.7V435.49h2.7Zm-1.7-1h.7V436.49h-.7Z" style="fill:#263238"></path><rect x="92.72" y="434.63" width="47.18" height="3.09" style="fill:#AA000E"></rect><path d="M140.4,438.22H92.22v-4.09H140.4Zm-47.18-1H139.4v-2.09H93.22Z" style="fill:#263238"></path><rect x="93.6" y="452.59" width="5.73" height="8.71" style="fill:#fff"></rect><path d="M99.83,461.8H93.1v-9.71h6.73Zm-5.73-1h4.73v-7.71H94.1Z" style="fill:#263238"></path><rect x="96.26" y="452.59" width="4.17" height="8.71" style="fill:#fff"></rect><path d="M100.93,461.8H95.76v-9.71h5.17Zm-4.17-1h3.17v-7.71H96.76Z" style="fill:#263238"></path><rect x="113.5" y="452.59" width="5.73" height="8.71" style="fill:#fff"></rect><path d="M119.73,461.8H113v-9.71h6.73Zm-5.73-1h4.73v-7.71H114Z" style="fill:#263238"></path><rect x="116.15" y="452.59" width="4.17" height="8.71" style="fill:#fff"></rect><path d="M120.83,461.8h-5.18v-9.71h5.18Zm-4.18-1h3.18v-7.71h-3.18Z" style="fill:#263238"></path><rect x="182.64" y="452.59" width="5.73" height="8.71" style="fill:#fff"></rect><path d="M188.87,461.8h-6.73v-9.71h6.73Zm-5.73-1h4.73v-7.71h-4.73Z" style="fill:#263238"></path><rect x="185.3" y="452.59" width="4.17" height="8.71" style="fill:#fff"></rect><path d="M190,461.8H184.8v-9.71H190Zm-4.17-1H189v-7.71H185.8Z" style="fill:#263238"></path><rect x="164.57" y="452.59" width="5.73" height="8.71" style="fill:#fff"></rect><path d="M170.81,461.8h-6.74v-9.71h6.74Zm-5.74-1h4.74v-7.71h-4.74Z" style="fill:#263238"></path><rect x="167.23" y="452.59" width="4.17" height="8.71" style="fill:#fff"></rect><path d="M171.9,461.8h-5.17v-9.71h5.17Zm-4.17-1h3.17v-7.71h-3.17Z" style="fill:#263238"></path><rect x="92.85" y="449.96" width="140.59" height="2.86" style="fill:#fff"></rect><path d="M234,453.32H92.35v-3.86H234Zm-140.6-1H233v-1.86H93.35Z" style="fill:#263238"></path><polygon points="299.03 217.46 315.3 217.46 321.06 208.03 304.79 208.03 299.03 217.46" style="fill:#fff"></polygon><path d="M315.3,218H299a.51.51,0,0,1-.44-.26.5.5,0,0,1,0-.5l5.76-9.43a.55.55,0,0,1,.43-.24h16.27a.51.51,0,0,1,.44.26.54.54,0,0,1,0,.51l-5.77,9.42A.49.49,0,0,1,315.3,218Zm-15.38-1H315l5.15-8.43h-15.1Z" style="fill:#263238"></path><rect x="311.59" y="213.83" width="8.88" height="10.43" style="fill:#263238"></rect><path d="M320.47,224.76h-8.88a.5.5,0,0,1-.5-.5V213.83a.5.5,0,0,1,.5-.5h8.88a.5.5,0,0,1,.5.5v10.43A.5.5,0,0,1,320.47,224.76Zm-8.38-1H320v-9.43h-7.88Z" style="fill:#263238"></path><polygon points="329.93 217.46 311.01 217.46 305.25 208.03 324.17 208.03 329.93 217.46" style="fill:#fff"></polygon><path d="M329.93,218H311a.49.49,0,0,1-.42-.24l-5.76-9.42a.49.49,0,0,1,0-.51.48.48,0,0,1,.43-.26h18.92a.51.51,0,0,1,.42.24l5.77,9.43a.5.5,0,0,1,0,.5A.51.51,0,0,1,329.93,218Zm-18.64-1H329l-5.15-8.43H306.14Z" style="fill:#263238"></path><polygon points="330.72 324.23 310.62 324.23 298.94 304.51 298.94 224.36 330.72 224.36 330.72 324.23" style="fill:#263238"></polygon><path d="M330.72,324.72h-20.1a.5.5,0,0,1-.43-.24l-11.68-19.71a.58.58,0,0,1-.06-.26V224.36a.5.5,0,0,1,.5-.5h31.77a.5.5,0,0,1,.5.5v99.86A.5.5,0,0,1,330.72,324.72Zm-19.82-1h19.32V224.86H299.45v79.52Z" style="fill:#263238"></path><rect x="310.62" y="224.36" width="20.1" height="99.87" style="fill:#fff"></rect><path d="M330.72,324.72h-20.1a.5.5,0,0,1-.5-.5V224.36a.5.5,0,0,1,.5-.5h20.1a.5.5,0,0,1,.5.5v99.86A.5.5,0,0,1,330.72,324.72Zm-19.6-1h19.1V224.86h-19.1Z" style="fill:#263238"></path><rect x="295.05" y="222.92" width="39.56" height="5.62" style="fill:#fff"></rect><path d="M334.61,229.05H295.05a.51.51,0,0,1-.5-.5v-5.63a.51.51,0,0,1,.5-.5h39.56a.5.5,0,0,1,.5.5v5.63A.5.5,0,0,1,334.61,229.05Zm-39.06-1h38.56v-4.63H295.55Z" style="fill:#263238"></path><rect x="309.59" y="222.92" width="25.03" height="5.62" style="fill:#fff"></rect><path d="M334.61,229.05h-25a.5.5,0,0,1-.5-.5v-5.63a.5.5,0,0,1,.5-.5h25a.5.5,0,0,1,.5.5v5.63A.5.5,0,0,1,334.61,229.05Zm-24.52-1h24v-4.63h-24Z" style="fill:#263238"></path><path d="M322.57,256.23c-1.37,0-2.91-1.7-3.51-2.43-1.35-1.65-2.58-4-2.29-5.47.47-2.33,3.76-5.64,3.9-5.78a.48.48,0,0,1,.11-.09c.23-.12,2.22-1.2,3.72-.7s4.79,4.49,4.54,7.16S325,256.23,322.57,256.23Zm-1.24-12.93c-.41.42-3.2,3.33-3.58,5.23-.19,1,.68,2.93,2.09,4.64,1,1.25,2.1,2.06,2.73,2.06,1.69,0,5.28-4.19,5.48-6.4s-2.79-5.76-3.87-6.12A4.57,4.57,0,0,0,321.33,243.3Z" style="fill:#263238"></path><path d="M316.6,245.61a.48.48,0,0,1-.2,0c-.14-.06-3.52-1.54-2.7-3.73a3.51,3.51,0,0,1,2-2.35c1.05-.34,2.38.07,4.07,1.23a.47.47,0,0,1,.21.32.51.51,0,0,1-.09.38l-2.87,4A.51.51,0,0,1,316.6,245.61Zm-.15-5.24a1.64,1.64,0,0,0-.46.07c-.55.17-1,.7-1.36,1.75s1.11,1.91,1.81,2.29l2.33-3.22A4.76,4.76,0,0,0,316.45,240.37Z" style="fill:#263238"></path><path d="M323.24,240.08c-1.85,0-5.15-.83-5.15-2.49a1,1,0,0,1,.33-.74c.8-.75,3.07-.68,3.68-.65a10.38,10.38,0,0,1,3.25-.2c.41.1.81.52.7,1.37A3.05,3.05,0,0,1,323.24,240.08Zm-1.84-2.9a4,4,0,0,0-2.31.42c0,.54,2.05,1.48,4.15,1.48a1.85,1.85,0,0,0,1.54-1,1.53,1.53,0,0,0,.26-1.12,11.07,11.07,0,0,0-2.81.27h-.13Z" style="fill:#263238"></path><path d="M317,261.11l-.22,0c-1.8-.26-4.59-3.58-5.05-5.22s.21-3.24,1.89-4.92a2.16,2.16,0,0,1,1.52-.64,3.39,3.39,0,0,1,2.09,1.11l.06.08c.08.15,2,3.58,2.46,4.71.39,1-.23,2.86-1,3.89A2.18,2.18,0,0,1,317,261.11Zm-1.92-9.8a1.05,1.05,0,0,0-.75.35c-1.43,1.43-2,2.75-1.64,3.93.41,1.44,3,4.33,4.23,4.51.39.06.8-.36,1-.62a4.1,4.1,0,0,0,.9-2.9c-.4-1-2.13-4.11-2.38-4.54a2.31,2.31,0,0,0-1.33-.73Z" style="fill:#263238"></path><path d="M326.33,266a1.9,1.9,0,0,1-1.38-.73,8.47,8.47,0,0,1-1.77-5.78c.23-2.75,3.35-4.77,3.74-5a1.29,1.29,0,0,1,1.39-.36c.91.42,1,2.08,1,5S328.15,266,326.33,266Zm1.56-11a2,2,0,0,0-.35.24l-.06,0s-3.11,1.9-3.3,4.26a7.47,7.47,0,0,0,1.5,5,1.07,1.07,0,0,0,.65.41c.73,0,1.94-2.76,1.94-5.91C328.27,257.64,328.27,255.29,327.89,255Zm-.67-.14h0Z" style="fill:#263238"></path><path d="M321.51,264.55a1.54,1.54,0,0,1-.69-.18A3.73,3.73,0,0,1,319,261.7c0-1,1.34-3.32,1.61-3.79l0-.05a1.07,1.07,0,0,1,1.09-.53c.63.15.87,1,1,1.56.32,1.49.36,4.77-.51,5.43A1.2,1.2,0,0,1,321.51,264.55Zm-.07-6.1A12.38,12.38,0,0,0,320,261.7a2.9,2.9,0,0,0,1.29,1.78c.23.11.31,0,.34,0a7.9,7.9,0,0,0,.27-3.42,4.66,4.66,0,0,0-.38-1.73Z" style="fill:#263238"></path><path d="M317,234.89a3.7,3.7,0,0,1-1-.14c-1.33-.35-3.18-1.48-3.18-2.69a1.17,1.17,0,0,1,.39-.86c.92-.87,3.41-.77,3.9-.74a.44.44,0,0,1,.25.08c.82.55,2.15,2,1.26,3.54A1.74,1.74,0,0,1,317,234.89Zm-.51-3.45a5,5,0,0,0-2.6.49.16.16,0,0,0-.07.13c0,.42,1.12,1.37,2.44,1.72.28.08,1.22.29,1.49-.2.55-1-.5-1.87-.84-2.13Z" style="fill:#263238"></path><path d="M322.57,291.87c-1.37,0-2.91-1.7-3.51-2.43-1.35-1.65-2.58-4-2.29-5.46.47-2.34,3.76-5.65,3.9-5.79l.11-.08c.23-.13,2.23-1.2,3.72-.7s4.79,4.48,4.54,7.15S325,291.87,322.57,291.87ZM321.33,279c-.41.42-3.2,3.33-3.58,5.22-.19,1,.68,2.93,2.09,4.64,1,1.25,2.1,2.06,2.73,2.06,1.69,0,5.28-4.18,5.48-6.4s-2.79-5.76-3.87-6.12A4.57,4.57,0,0,0,321.33,279Z" style="fill:#263238"></path><path d="M316.6,281.26a.71.71,0,0,1-.2,0c-.14-.07-3.52-1.55-2.7-3.74a3.51,3.51,0,0,1,2-2.35c1.06-.33,2.38.07,4.07,1.23a.5.5,0,0,1,.12.71l-2.87,4A.52.52,0,0,1,316.6,281.26Zm-.15-5.24a1.65,1.65,0,0,0-.46.06c-.55.18-1,.7-1.36,1.75s1.11,1.92,1.81,2.29l2.33-3.22A4.73,4.73,0,0,0,316.45,276Z" style="fill:#263238"></path><path d="M323.24,275.73c-1.85,0-5.15-.84-5.15-2.5a1,1,0,0,1,.33-.74c.8-.75,3.08-.68,3.68-.64a10.34,10.34,0,0,1,3.25-.21c.41.11.81.52.7,1.38A3.06,3.06,0,0,1,323.24,275.73Zm-1.85-2.9a4,4,0,0,0-2.3.41c0,.54,2.05,1.49,4.15,1.49a1.85,1.85,0,0,0,1.54-1,1.52,1.52,0,0,0,.26-1.12,11.54,11.54,0,0,0-2.81.27h-.13C321.86,272.83,321.62,272.83,321.39,272.83Z" style="fill:#263238"></path><path d="M317,296.75h-.22c-1.8-.26-4.59-3.59-5.05-5.23s.21-3.23,1.89-4.91a2,2,0,0,1,1.52-.64,3.4,3.4,0,0,1,2.09,1.1l.06.09c.08.14,2,3.58,2.46,4.7s-.23,2.86-1,3.9A2.19,2.19,0,0,1,317,296.75ZM315.05,287a1,1,0,0,0-.75.34c-1.43,1.43-2,2.75-1.64,3.94.41,1.43,3,4.32,4.23,4.51.39.05.8-.37,1-.62a4.13,4.13,0,0,0,.9-2.91c-.4-1-2.13-4.1-2.38-4.53a2.2,2.2,0,0,0-1.33-.73Z" style="fill:#263238"></path><path d="M326.33,301.61a1.92,1.92,0,0,1-1.38-.74,8.47,8.47,0,0,1-1.77-5.78c.23-2.75,3.35-4.76,3.74-5a1.31,1.31,0,0,1,1.39-.36c.91.42,1,2.08,1,5S328.15,301.61,326.33,301.61Zm1.56-11a2,2,0,0,0-.35.24l-.06.05s-3.11,1.89-3.3,4.26a7.5,7.5,0,0,0,1.5,5,1.07,1.07,0,0,0,.65.41c.73,0,1.94-2.77,1.94-5.92C328.27,293.28,328.27,290.93,327.89,290.63Zm-.67-.14h0Z" style="fill:#263238"></path><path d="M321.51,300.19a1.67,1.67,0,0,1-.69-.17,3.77,3.77,0,0,1-1.84-2.67c0-1,1.34-3.33,1.61-3.79l0-.06a1.06,1.06,0,0,1,1.09-.52c.63.14.87.95,1,1.55.32,1.49.36,4.77-.51,5.43A1.2,1.2,0,0,1,321.51,300.19Zm-.07-6.1a12.42,12.42,0,0,0-1.46,3.26,2.91,2.91,0,0,0,1.29,1.77c.23.12.31.06.34,0a7.88,7.88,0,0,0,.27-3.42,4.58,4.58,0,0,0-.38-1.72Z" style="fill:#263238"></path><path d="M317,270.54a3.73,3.73,0,0,1-1-.15c-1.33-.35-3.18-1.48-3.18-2.69a1.19,1.19,0,0,1,.39-.86c.92-.87,3.41-.77,3.9-.74a.44.44,0,0,1,.25.08c.82.55,2.15,2,1.26,3.54A1.73,1.73,0,0,1,317,270.54Zm-.51-3.46a5,5,0,0,0-2.6.49c-.07.07-.07.11-.07.13,0,.42,1.12,1.38,2.44,1.73.28.07,1.22.28,1.49-.2.55-1-.49-1.87-.84-2.14Z" style="fill:#263238"></path><path d="M316.6,316.14a.48.48,0,0,1-.2,0c-.14-.06-3.52-1.54-2.7-3.73a3.51,3.51,0,0,1,2-2.35c1.05-.33,2.38.07,4.07,1.23a.49.49,0,0,1,.21.33.52.52,0,0,1-.09.38l-2.87,4A.51.51,0,0,1,316.6,316.14Zm-.15-5.23a1.65,1.65,0,0,0-.46.06c-.55.18-1,.7-1.36,1.75s1.11,1.91,1.81,2.29l2.33-3.22A4.73,4.73,0,0,0,316.45,310.91Z" style="fill:#263238"></path><path d="M323.24,310.61c-1.85,0-5.15-.83-5.15-2.49a1,1,0,0,1,.33-.74c.8-.75,3.07-.68,3.68-.65a10.66,10.66,0,0,1,3.25-.2c.41.1.81.52.7,1.38A3.05,3.05,0,0,1,323.24,310.61Zm-1.84-2.9a4,4,0,0,0-2.31.42c0,.54,2.05,1.48,4.15,1.48a1.85,1.85,0,0,0,1.54-1,1.52,1.52,0,0,0,.26-1.12,11.54,11.54,0,0,0-2.81.27h-.13Z" style="fill:#263238"></path><path d="M317,305.42a3.7,3.7,0,0,1-1-.14c-1.33-.35-3.18-1.48-3.18-2.69a1.19,1.19,0,0,1,.39-.86c.92-.87,3.41-.77,3.9-.74a.44.44,0,0,1,.25.08c.82.55,2.15,2,1.26,3.54A1.72,1.72,0,0,1,317,305.42Zm-.52-3.45a4.94,4.94,0,0,0-2.59.49.16.16,0,0,0-.07.13c0,.42,1.12,1.38,2.44,1.73.28.07,1.22.28,1.49-.21.55-1-.49-1.87-.84-2.13Z" style="fill:#263238"></path><path d="M304.76,230.51a4.47,4.47,0,0,0-1.17,3.1,3.52,3.52,0,0,0,2.93,3.32c1,0,1.57-4.65,1.37-5.53S304.76,230.51,304.76,230.51Z" style="fill:#7d7d7d"></path><path d="M306.52,237.43a4,4,0,0,1-3.43-3.82,4.91,4.91,0,0,1,1.33-3.46.48.48,0,0,1,.34-.14c1,0,3.37.13,3.62,1.28.19.85-.21,4.61-1.1,5.73A1,1,0,0,1,306.52,237.43ZM305,231a4,4,0,0,0-.89,2.59,3.07,3.07,0,0,0,2.43,2.82c.5-.36,1.07-4.11.89-4.92A4.65,4.65,0,0,0,305,231Z" style="fill:#263238"></path><path d="M302.41,230.51s-2-.44-2,.67,1.57,2.21,1.57,1.54A14,14,0,0,1,302.41,230.51Z" style="fill:#7d7d7d"></path><path d="M301.84,233.42a2.49,2.49,0,0,1-1.89-2.24,1.13,1.13,0,0,1,.42-.91,2.93,2.93,0,0,1,2.15-.25.54.54,0,0,1,.32.23.46.46,0,0,1,.05.38,13.58,13.58,0,0,0-.37,2.09.69.69,0,0,1-.19.5A.65.65,0,0,1,301.84,233.42Zm-.25-2.5a1,1,0,0,0-.59.13s-.05,0-.05.13a1.61,1.61,0,0,0,.61,1,12.51,12.51,0,0,1,.24-1.3Z" style="fill:#263238"></path><path d="M305.25,239.58s-1.48-3.54-2.64-2.65-2.63,4.42-1.64,5.53,4.11,3.54,4.6,1.55A9.28,9.28,0,0,0,305.25,239.58Z" style="fill:#7d7d7d"></path><path d="M304.68,245.26c-1.53,0-3.61-1.94-4.08-2.47a2.29,2.29,0,0,1-.43-1.81,7.58,7.58,0,0,1,2.14-4.45,1.1,1.1,0,0,1,1-.2c1.19.31,2.21,2.6,2.4,3.06a0,0,0,0,0,0,0,9.86,9.86,0,0,1,.34,4.71,1.36,1.36,0,0,1-1,1.09A1.5,1.5,0,0,1,304.68,245.26Zm-1.67-8-.09,0a6.73,6.73,0,0,0-1.76,3.76,1.48,1.48,0,0,0,.18,1c.86,1,2.73,2.31,3.47,2.13.07,0,.2-.05.28-.36a8.88,8.88,0,0,0-.31-4.13c-.39-.92-1.2-2.33-1.73-2.47Z" style="fill:#263238"></path><path d="M307.5,239.14s-.39,4,.39,4,1.57-4.87,1-5.75S307.5,239.14,307.5,239.14Z" style="fill:#7d7d7d"></path><path d="M307.89,243.62a.76.76,0,0,1-.55-.25c-.61-.68-.44-3.22-.34-4.28,0,0,0-.06,0-.09.3-1,.79-2.2,1.48-2.3a.77.77,0,0,1,.79.39c.65,1,.1,4.66-.57,5.9A1,1,0,0,1,307.89,243.62Zm.2-.92h0Zm-.09-3.46a14.82,14.82,0,0,0,0,3,11.71,11.71,0,0,0,.57-4.38A7.12,7.12,0,0,0,308,239.24Z" style="fill:#263238"></path><path d="M306,246.35s-3.92.63-4.4,1.69.87,3.83,1.54,4.36,4.55-4.2,4.06-5.18S306,246.35,306,246.35Z" style="fill:#7d7d7d"></path><path d="M303.29,252.94a.65.65,0,0,1-.43-.15c-.77-.6-2.3-3.61-1.69-4.95s3.8-1.83,4.78-2h0a1.76,1.76,0,0,1,1.71,1.15c.63,1.23-2.23,4.53-3.29,5.4A1.94,1.94,0,0,1,303.29,252.94Zm.19-.94h0Zm2.61-5.16c-1.76.29-3.79.92-4,1.41-.34.75.71,3,1.29,3.66.95-.41,3.52-3.77,3.4-4.49C306.49,246.87,306.18,246.85,306.09,246.84Z" style="fill:#263238"></path><path d="M304.76,256.9a4.43,4.43,0,0,0-1.17,3.09,3.51,3.51,0,0,0,2.93,3.32c1,0,1.57-4.64,1.37-5.53S304.76,256.9,304.76,256.9Z" style="fill:#7d7d7d"></path><path d="M306.52,263.81a4,4,0,0,1-3.43-3.82,4.91,4.91,0,0,1,1.33-3.46.51.51,0,0,1,.34-.13c1,0,3.37.12,3.62,1.27.19.86-.21,4.62-1.1,5.73A1,1,0,0,1,306.52,263.81ZM305,257.4a4,4,0,0,0-.89,2.59,3.06,3.06,0,0,0,2.43,2.82c.5-.35,1.07-4.1.89-4.92A4.87,4.87,0,0,0,305,257.4Z" style="fill:#263238"></path><path d="M302.41,256.9s-2-.44-2,.66,1.57,2.21,1.57,1.55A14,14,0,0,1,302.41,256.9Z" style="fill:#7d7d7d"></path><path d="M301.84,259.81a2.5,2.5,0,0,1-1.89-2.25,1.14,1.14,0,0,1,.42-.91,2.92,2.92,0,0,1,2.15-.24.5.5,0,0,1,.32.23.46.46,0,0,1,.05.38,13.37,13.37,0,0,0-.37,2.09.64.64,0,0,1-.19.49A.62.62,0,0,1,301.84,259.81Zm-.25-2.5a1,1,0,0,0-.59.12.14.14,0,0,0-.05.13,1.61,1.61,0,0,0,.61,1.06,11.6,11.6,0,0,1,.24-1.3Z" style="fill:#263238"></path><path d="M305.25,266s-1.48-3.54-2.64-2.66-2.63,4.43-1.64,5.53,4.11,3.54,4.6,1.55A9.23,9.23,0,0,0,305.25,266Z" style="fill:#7d7d7d"></path><path d="M304.68,271.65c-1.53,0-3.61-1.94-4.08-2.47a2.31,2.31,0,0,1-.43-1.81,7.49,7.49,0,0,1,2.14-4.45,1.14,1.14,0,0,1,1-.21c1.19.32,2.21,2.61,2.4,3.07a0,0,0,0,0,0,0,9.79,9.79,0,0,1,.34,4.7,1.36,1.36,0,0,1-1,1.1A1.5,1.5,0,0,1,304.68,271.65Zm-1.67-8a.14.14,0,0,0-.09,0,6.69,6.69,0,0,0-1.76,3.75,1.5,1.5,0,0,0,.18,1.05c.86,1,2.73,2.31,3.47,2.12.07,0,.2,0,.28-.36a8.9,8.9,0,0,0-.31-4.13c-.39-.92-1.2-2.32-1.73-2.46Z" style="fill:#263238"></path><path d="M307.5,265.52s-.39,4,.39,4,1.57-4.87,1-5.75S307.5,265.52,307.5,265.52Z" style="fill:#7d7d7d"></path><path d="M307.89,270a.74.74,0,0,1-.55-.26c-.61-.68-.44-3.21-.34-4.27,0,0,0-.07,0-.1.3-1,.79-2.19,1.48-2.3a.8.8,0,0,1,.79.4c.65,1,.1,4.66-.57,5.89A1,1,0,0,1,307.89,270Zm.2-.92h0Zm-.09-3.47a14.82,14.82,0,0,0,0,3,11.64,11.64,0,0,0,.57-4.37A7,7,0,0,0,308,265.62Z" style="fill:#263238"></path><path d="M306,272.73s-3.92.64-4.4,1.7.87,3.83,1.54,4.35,4.55-4.19,4.06-5.17S306,272.73,306,272.73Z" style="fill:#7d7d7d"></path><path d="M303.29,279.32a.69.69,0,0,1-.43-.14c-.77-.61-2.3-3.61-1.69-5s3.8-1.82,4.78-2h0a1.75,1.75,0,0,1,1.71,1.14c.63,1.24-2.22,4.54-3.29,5.41A2,2,0,0,1,303.29,279.32Zm.19-.93h0Zm2.61-5.16c-1.76.29-3.79.92-4,1.41-.34.74.71,3,1.29,3.65.95-.4,3.52-3.76,3.4-4.49C306.49,273.25,306.19,273.25,306.09,273.23Z" style="fill:#263238"></path><path d="M304.76,283.28a4.47,4.47,0,0,0-1.17,3.1,3.52,3.52,0,0,0,2.93,3.32c1,0,1.57-4.65,1.37-5.53S304.76,283.28,304.76,283.28Z" style="fill:#7d7d7d"></path><path d="M306.52,290.2a4,4,0,0,1-3.43-3.82,4.91,4.91,0,0,1,1.33-3.46.48.48,0,0,1,.34-.14c1,0,3.37.13,3.62,1.28.19.85-.21,4.61-1.1,5.73A1,1,0,0,1,306.52,290.2ZM305,283.79a4,4,0,0,0-.89,2.59,3.06,3.06,0,0,0,2.43,2.82c.5-.36,1.07-4.11.89-4.92A4.65,4.65,0,0,0,305,283.79Z" style="fill:#263238"></path><path d="M302.41,283.28s-2-.44-2,.67,1.57,2.21,1.57,1.55A13.93,13.93,0,0,1,302.41,283.28Z" style="fill:#7d7d7d"></path><path d="M301.84,286.2A2.51,2.51,0,0,1,300,284a1.13,1.13,0,0,1,.42-.91,2.87,2.87,0,0,1,2.15-.24.52.52,0,0,1,.32.22.49.49,0,0,1,.05.39,13.17,13.17,0,0,0-.37,2.09.68.68,0,0,1-.19.49A.66.66,0,0,1,301.84,286.2Zm-.25-2.5a1,1,0,0,0-.59.12s-.05,0-.05.13a1.56,1.56,0,0,0,.61,1.05,12.51,12.51,0,0,1,.24-1.3Z" style="fill:#263238"></path><path d="M305.25,292.35s-1.48-3.54-2.64-2.65-2.63,4.42-1.64,5.53,4.11,3.54,4.6,1.55A9.28,9.28,0,0,0,305.25,292.35Z" style="fill:#7d7d7d"></path><path d="M304.68,298c-1.53,0-3.61-2-4.08-2.48a2.27,2.27,0,0,1-.43-1.8,7.52,7.52,0,0,1,2.14-4.46,1.1,1.1,0,0,1,1-.2c1.19.31,2.21,2.6,2.4,3.06a0,0,0,0,0,0,0,9.86,9.86,0,0,1,.34,4.71,1.36,1.36,0,0,1-1,1.09A1.5,1.5,0,0,1,304.68,298Zm-1.67-8-.09,0a6.73,6.73,0,0,0-1.76,3.76,1.52,1.52,0,0,0,.18,1c.86,1,2.73,2.31,3.47,2.12.07,0,.2,0,.28-.36a8.88,8.88,0,0,0-.31-4.13c-.39-.92-1.2-2.33-1.73-2.47Z" style="fill:#263238"></path><path d="M307.5,291.91s-.39,4,.39,4,1.57-4.86,1-5.75S307.5,291.91,307.5,291.91Z" style="fill:#7d7d7d"></path><path d="M307.89,296.39a.76.76,0,0,1-.55-.25c-.61-.68-.44-3.22-.34-4.28,0,0,0-.06,0-.09.3-1,.79-2.2,1.48-2.3a.79.79,0,0,1,.79.39c.65,1,.1,4.66-.57,5.9A1,1,0,0,1,307.89,296.39Zm.2-.92h0ZM308,292a14.82,14.82,0,0,0,0,3,11.71,11.71,0,0,0,.57-4.38A7.12,7.12,0,0,0,308,292Z" style="fill:#263238"></path><path d="M306,299.12s-3.92.63-4.4,1.7.87,3.83,1.54,4.35,4.55-4.2,4.06-5.18S306,299.12,306,299.12Z" style="fill:#7d7d7d"></path><path d="M303.29,305.71a.65.65,0,0,1-.43-.15c-.77-.6-2.3-3.61-1.69-4.95s3.8-1.83,4.78-2h0a1.78,1.78,0,0,1,1.71,1.15c.63,1.23-2.23,4.53-3.29,5.4A1.94,1.94,0,0,1,303.29,305.71Zm.19-.94h0Zm2.61-5.16c-1.76.29-3.79.93-4,1.41-.34.75.71,3,1.29,3.66.95-.41,3.52-3.77,3.4-4.49C306.49,299.64,306.19,299.63,306.09,299.61Z" style="fill:#263238"></path></g><g id="freepik--trees-2--inject-17"><path d="M487.57,317.37c0-.36-.26-.62-.52-.57l-15,3.21c-.52.11-.74-.88-.24-1.15l15.06-8.51a.63.63,0,0,0,.27-.6c-.62-10.86-1.59-22.78-2.85-34.93,0-.35-.28-.58-.54-.51l-13.23,3.39c-.48.12-.75-.73-.34-1.09L483,265a.7.7,0,0,0,.2-.59c-.69-5.87-1.44-11.74-2.25-17.53l-1-5.78c-.06-.36-.35-.56-.61-.42l-7.7,4.25c-.46.25-.85-.52-.5-1l7.67-10.22a.69.69,0,0,0,.12-.55c-1.53-9.52-3.23-18.57-5.05-26.71-.09-.38-.42-.55-.67-.34l-9.93,8.14c-.42.34-.89-.33-.6-.87l8.73-16.28a.77.77,0,0,0,.06-.56,135.58,135.58,0,0,0-4.91-15.29c-.12-.28-.37-.39-.59-.26l-6.88,4c-.36.21-.73-.23-.62-.73l2.17-8.68c0-.16.19-.79.36-1.35l.56-2.24c-1.6-2-3.23-3-4.9-3s-3.54,1.21-5.24,3.45l2.57,11.86c.11.5-.26.94-.62.73l-6.19-3.63c-.22-.13-.47,0-.58.27a138,138,0,0,0-5,15.95.74.74,0,0,0,.06.55l8.16,15.22c.28.54-.19,1.21-.61.87l-9.2-7.55c-.26-.21-.59,0-.68.34-1.83,8.26-3.53,17.43-5.07,27.05a.82.82,0,0,0,.12.56l7,9.28c.35.46,0,1.23-.49,1L433.66,241c-.26-.14-.56.07-.62.44-1.14,7.75-2.18,15.71-3.1,23.66a.67.67,0,0,0,.19.59l12,10.9c.4.36.14,1.21-.34,1.09l-12.41-3.18c-.25-.07-.5.17-.53.51-1.27,12.26-2.24,24.26-2.86,35.19a.63.63,0,0,0,.27.6l14.24,8c.49.27.28,1.26-.25,1.15l-14.11-3c-.26-.05-.51.21-.52.57-.28,6.28-.42,12.1-.42,17.27,0,3.28.05,6.43.17,9.45a.6.6,0,0,0,.32.55L440.56,351c.48.2.4,1.14-.1,1.18l-14.07,1.25c-.26,0-.45.33-.42.68a122.13,122.13,0,0,0,4.61,25.61c.09.29.33.44.56.34l8.64-3.73c.44-.2.78.53.46,1l-6.67,9.49a.79.79,0,0,0-.06.73c5.74,12.63,14,18.09,23.09,18.09,8.95,0,17-5.25,22.74-17.35a.77.77,0,0,0,0-.74l-7.19-10.22c-.32-.45,0-1.18.47-1l9.39,4.05a.42.42,0,0,0,.56-.33,121.48,121.48,0,0,0,4.7-25.87.59.59,0,0,0-.42-.68l-14.91-1.32c-.5,0-.59-1-.11-1.18l15.56-6.5a.57.57,0,0,0,.3-.42l.22-1.1a.66.66,0,0,0,0-.14q.13-3.89.13-8.05C488,329.6,487.85,323.72,487.57,317.37Z" style="fill:#AA000E"></path><path d="M487.57,317.37c0-.36-.26-.62-.52-.57l-15,3.21c-.52.11-.74-.88-.24-1.15l15.06-8.51a.63.63,0,0,0,.27-.6c-.62-10.86-1.59-22.78-2.85-34.93,0-.35-.28-.58-.54-.51l-13.23,3.39c-.48.12-.75-.73-.34-1.09L483,265a.7.7,0,0,0,.2-.59c-.69-5.87-1.44-11.74-2.25-17.53l-1-5.78c-.06-.36-.35-.56-.61-.42l-7.7,4.25c-.46.25-.85-.52-.5-1l7.67-10.22a.69.69,0,0,0,.12-.55c-1.53-9.52-3.23-18.57-5.05-26.71-.09-.38-.42-.55-.67-.34l-9.93,8.14c-.42.34-.89-.33-.6-.87l8.73-16.28a.77.77,0,0,0,.06-.56,135.58,135.58,0,0,0-4.91-15.29c-.12-.28-.37-.39-.59-.26l-6.88,4c-.36.21-.73-.23-.62-.73l2.17-8.68c0-.16.19-.79.36-1.35l.56-2.24c-1.6-2-3.23-3-4.9-3s-3.54,1.21-5.24,3.45l2.57,11.86c.11.5-.26.94-.62.73l-6.19-3.63c-.22-.13-.47,0-.58.27a138,138,0,0,0-5,15.95.74.74,0,0,0,.06.55l8.16,15.22c.28.54-.19,1.21-.61.87l-9.2-7.55c-.26-.21-.59,0-.68.34-1.83,8.26-3.53,17.43-5.07,27.05a.82.82,0,0,0,.12.56l7,9.28c.35.46,0,1.23-.49,1L433.66,241c-.26-.14-.56.07-.62.44-1.14,7.75-2.18,15.71-3.1,23.66a.67.67,0,0,0,.19.59l12,10.9c.4.36.14,1.21-.34,1.09l-12.41-3.18c-.25-.07-.5.17-.53.51-1.27,12.26-2.24,24.26-2.86,35.19a.63.63,0,0,0,.27.6l14.24,8c.49.27.28,1.26-.25,1.15l-14.11-3c-.26-.05-.51.21-.52.57-.28,6.28-.42,12.1-.42,17.27,0,3.28.05,6.43.17,9.45a.6.6,0,0,0,.32.55L440.56,351c.48.2.4,1.14-.1,1.18l-14.07,1.25c-.26,0-.45.33-.42.68a122.13,122.13,0,0,0,4.61,25.61c.09.29.33.44.56.34l8.64-3.73c.44-.2.78.53.46,1l-6.67,9.49a.79.79,0,0,0-.06.73c5.74,12.63,14,18.09,23.09,18.09,8.95,0,17-5.25,22.74-17.35a.77.77,0,0,0,0-.74l-7.19-10.22c-.32-.45,0-1.18.47-1l9.39,4.05a.42.42,0,0,0,.56-.33,121.48,121.48,0,0,0,4.7-25.87.59.59,0,0,0-.42-.68l-14.91-1.32c-.5,0-.59-1-.11-1.18l15.56-6.5a.57.57,0,0,0,.3-.42l.22-1.1a.66.66,0,0,0,0-.14q.13-3.89.13-8.05C488,329.6,487.85,323.72,487.57,317.37Z" style="fill:#fff;opacity:0.6000000000000001"></path><polygon points="457.84 360.25 456.88 305.66 473.67 291.75 456.76 298.62 456.44 280.77 456.3 281.07 456.4 278.45 455.95 252.79 469.85 239.97 456.22 248.14 455.92 250.86 455.36 219.07 455.06 225.34 453.58 272.85 452.95 271.58 442.05 264.5 453.5 275.63 451.63 335.87 434.42 330.46 451.44 342.16 450.16 383.54 443.68 382.24 449.96 390.08 449.26 412.64 448.4 459.85 459.59 459.85 457.93 365.2 471.48 362.07 457.84 360.25" style="fill:#263238"></polygon><polygon points="457.84 360.25 456.88 305.66 473.67 291.75 456.76 298.62 456.44 280.77 456.3 281.07 456.4 278.45 455.95 252.79 469.85 239.97 456.22 248.14 455.92 250.86 455.36 219.07 455.06 225.34 453.58 272.85 452.95 271.58 442.05 264.5 453.5 275.63 451.63 335.87 434.42 330.46 451.44 342.16 450.16 383.54 443.68 382.24 449.96 390.08 449.26 412.64 448.4 459.85 459.59 459.85 457.93 365.2 471.48 362.07 457.84 360.25" style="fill:#fff;opacity:0.5"></polygon><path d="M452.22,264.4a.82.82,0,0,0-1-.77L423.94,268a.83.83,0,0,1-.46-1.58L451,254.78a.82.82,0,0,0,.5-.82c-1.14-14.9-2.91-31.25-5.22-47.93a.83.83,0,0,0-1-.7L421.13,210a.82.82,0,0,1-.62-1.49l23.33-15.91a.82.82,0,0,0,.35-.81c-1.25-8.05-2.62-16.11-4.1-24l-1.9-7.93a.82.82,0,0,0-1.12-.57L423,165.05a.83.83,0,0,1-.9-1.35l14-14a.83.83,0,0,0,.23-.76c-2.81-13.05-5.9-25.46-9.24-36.64a.83.83,0,0,0-1.23-.46L407.72,123a.82.82,0,0,1-1.1-1.18l16-22.34a.87.87,0,0,0,.1-.77,151.13,151.13,0,0,0-9-21,.81.81,0,0,0-1.06-.35L400.06,82.9a.83.83,0,0,1-1.13-1l4-11.91c.06-.21.35-1.09.66-1.85l1-3.07c-2.92-2.7-5.92-4.17-9-4.17-3.27,0-6.46,1.66-9.57,4.73l4.69,16.27a.82.82,0,0,1-1.12,1l-11.33-5a.82.82,0,0,0-1.06.37A157.43,157.43,0,0,0,368,100.17a.85.85,0,0,0,.1.76l14.92,20.88A.83.83,0,0,1,382,123l-16.82-10.35a.83.83,0,0,0-1.23.46c-3.35,11.33-6.46,23.91-9.27,37.11a.81.81,0,0,0,.22.76l12.73,12.73a.83.83,0,0,1-.9,1.35l-13-5.37a.83.83,0,0,0-1.13.6c-2.1,10.63-4,21.55-5.68,32.45a.84.84,0,0,0,.35.81l21.93,15a.83.83,0,0,1-.63,1.49l-22.66-4.36a.84.84,0,0,0-1,.71c-2.32,16.81-4.1,33.28-5.23,48.27a.83.83,0,0,0,.5.82l26,11a.83.83,0,0,1-.45,1.58L340,263.88a.83.83,0,0,0-1,.77c-.5,8.62-.77,16.6-.77,23.7q0,6.73.32,13a.83.83,0,0,0,.58.74l27.19,8.53a.83.83,0,0,1-.19,1.62l-25.72,1.71a.84.84,0,0,0-.77.93c1.6,14,4.49,25.6,8.43,35.13a.83.83,0,0,0,1,.47l15.79-5.12a.83.83,0,0,1,.86,1.35l-12.2,13a.83.83,0,0,0-.11,1c10.49,17.32,25.51,24.82,42.2,24.82,16.35,0,31.11-7.21,41.56-23.81a.84.84,0,0,0-.1-1l-13.14-14a.83.83,0,0,1,.86-1.35L442,350.88a.81.81,0,0,0,1-.46c4-9.59,7-21.35,8.61-35.48a.85.85,0,0,0-.77-.93l-27.27-1.81a.83.83,0,0,1-.19-1.62l28.43-8.92a.84.84,0,0,0,.56-.57l.4-1.52a1.13,1.13,0,0,0,0-.18c.15-3.56.23-7.23.23-11C453,281.19,452.74,273.12,452.22,264.4Z" style="fill:#AA000E"></path><polygon points="397.32 323.23 396 248.34 419.03 229.27 395.84 238.69 395.41 214.21 395.21 214.61 395.35 211.02 394.73 175.83 413.79 158.23 395.1 169.45 394.69 173.17 393.92 129.56 393.5 138.16 391.48 203.33 390.61 201.6 375.66 191.88 391.37 207.15 388.81 289.78 365.19 282.36 388.54 298.41 386.78 355.17 377.9 353.39 386.51 364.15 385.55 395.09 384.37 459.85 399.72 459.85 397.44 330.02 416.04 325.73 397.32 323.23" style="fill:#263238"></polygon></g><g id="freepik--Floor--inject-17"><path d="M472.19,459.71s.42-.28.56-1.38-2.22,1.24-2.22,1.24a11.92,11.92,0,0,0,0-2.35c-.14-1-2.63,1.66-2.63,1.66s-.28-3.88-2.08-4-1.1,4.56-1.1,4.56-1.94-2.9-2.77-2.63c-.83-.27-2.77,2.63-2.77,2.63s.69-4.7-1.11-4.56-2.07,4-2.07,4-2.5-2.63-2.63-1.66a11.92,11.92,0,0,0,0,2.35s-2.36-2.35-2.22-1.24.55,1.38.55,1.38h-10c.4-.56,1.86-2.67,1.14-2.91s-1.88,1.4-2.46,2.2a3.25,3.25,0,0,0,.14-.67c0-.3-.1-.35-.32-.26.05-1.38-.07-3.29-1.23-3.2s-1.63,1.55-1.88,2.69c-.28.23-.56.49-.81.72-.24-.23-.52-.49-.81-.72-.24-1.14-.77-2.61-1.87-2.69s-1.28,1.82-1.23,3.2c-.22-.09-.36,0-.32.26a3.25,3.25,0,0,0,.14.67c-.58-.8-1.84-2.4-2.47-2.2-.38.13-.14.79.22,1.46a12.92,12.92,0,0,0-1.53,1.31,11.92,11.92,0,0,0,0-2.35c-.14-1-2.63,1.66-2.63,1.66s-.28-3.88-2.08-4-1.1,4.56-1.1,4.56-1.94-2.9-2.77-2.63a.92.92,0,0,0-.74.26c-.28-.26-1.26.57-1.92,1.2.07-1.38,0-3.49-1.22-3.39a1.27,1.27,0,0,0-.74.32,1.3,1.3,0,0,0-.74-.32c-1.22-.1-1.3,2-1.22,3.39-.66-.63-1.65-1.46-1.93-1.2a.91.91,0,0,0-.73-.26,2.89,2.89,0,0,0-1.07,1.35c-.31-.17-.54-.18-.49.18a3.69,3.69,0,0,0,.13.62c-.14.33-.25.6-.3.76h-1.6c.4-.56,1.86-2.67,1.14-2.91s-2.77,2.63-2.77,2.63.7-4.7-1.1-4.56-2.08,4-2.08,4a14.86,14.86,0,0,0-1.62-1.47c.08-.3.07-.54-.14-.61a.84.84,0,0,0-.65.21.2.2,0,0,0-.2.15,8.37,8.37,0,0,0-1.23,1.34l-.24-.18c0-.29-.11-.33-.33-.25.06-1.38-.07-3.29-1.22-3.2s-1.63,1.55-1.88,2.69c-.28.23-.57.49-.81.72-.24-.23-.53-.49-.81-.72-.24-1.14-.78-2.61-1.87-2.69s-1.29,1.82-1.23,3.2c-.22-.09-.36,0-.33.26a4,4,0,0,0,.15.67c-.58-.8-1.84-2.4-2.47-2.2s.74,2.35,1.15,2.91h-2.33s.42-.28.55-1.38-2.21,1.24-2.21,1.24a11.92,11.92,0,0,0,0-2.35c-.14-1-2.63,1.66-2.63,1.66s-.28-3.88-2.08-4c-1.17-.09-1.28,1.87-1.22,3.25a3.12,3.12,0,0,0-.57.38,8.37,8.37,0,0,0-1.23-1.34.21.21,0,0,0-.19-.15.87.87,0,0,0-.66-.21c-.45-.15-1.23.64-1.84,1.39-.15-.95-.54-2.59-1.45-3.14a.76.76,0,0,0-.51-.18h-.11a.78.78,0,0,0-.52.18c-.91.54-1.29,2.19-1.44,3.14-.62-.75-1.39-1.54-1.84-1.39a1.16,1.16,0,0,0-.38.28c-.27-.12-.46-.11-.5.14s0,.44,0,.67A11.33,11.33,0,0,0,367,459a10.53,10.53,0,0,0-.95-.76c.37-.67.6-1.33.22-1.46-.83-.27-2.77,2.63-2.77,2.63s.69-4.7-1.11-4.56-2.07,4-2.07,4-2.49-2.63-2.63-1.66a11.92,11.92,0,0,0,0,2.35s-2.36-2.35-2.22-1.24.56,1.38.56,1.38h-1.87s.41-.28.55-1.38-2.22,1.24-2.22,1.24a11.92,11.92,0,0,0,0-2.35c-.13-1-2.63,1.66-2.63,1.66s-.27-3.88-2.07-4-1.11,4.56-1.11,4.56-1.94-2.9-2.77-2.63c-.38.13-.14.79.22,1.46a12.92,12.92,0,0,0-1.53,1.31,11.92,11.92,0,0,0,0-2.35c-.14-1-2.63,1.66-2.63,1.66s-.28-3.88-2.08-4-1.11,4.56-1.11,4.56-1.93-2.9-2.77-2.63c-.83-.27-2.76,2.63-2.76,2.63s.05-.35.09-.87c.45-.76.83-1.61.39-1.76a.59.59,0,0,0-.38.05c-.08-1.07-.38-2.05-1.21-2a1.64,1.64,0,0,0-1.25.95c-.18-.59-.49-1-1-.95-1,.07-1.5,1.23-1.78,2.29-.34-.19-.6-.23-.64.06a10.43,10.43,0,0,0-.06,1.26c-.71-.7-2.12-2-2.23-1.26a12.83,12.83,0,0,0,0,2.35s-2.35-2.35-2.21-1.24.55,1.38.55,1.38H312s.42-.28.56-1.38-2.22,1.24-2.22,1.24a11.92,11.92,0,0,0,0-2.35c-.1-.72-1.52.56-2.23,1.26a7.5,7.5,0,0,0-.06-1.26c0-.29-.3-.25-.64-.06-.28-1.06-.8-2.22-1.77-2.29-.55-.05-.86.36-1,.95a1.65,1.65,0,0,0-1.25-.95c-.84-.07-1.13.91-1.21,2a.59.59,0,0,0-.38-.05c-.44.15-.06,1,.39,1.76,0,.52.09.87.09.87s-1.94-2.9-2.77-2.63c-.83-.27-2.77,2.63-2.77,2.63s.69-4.7-1.1-4.56-2.08,4-2.08,4-2.49-2.63-2.63-1.66a11.92,11.92,0,0,0,0,2.35,12.92,12.92,0,0,0-1.53-1.31c.36-.67.6-1.33.21-1.46-.83-.27-2.76,2.63-2.76,2.63s.69-4.7-1.11-4.56-2.08,4-2.08,4-2.49-2.63-2.63-1.66a11.92,11.92,0,0,0,0,2.35s-2.35-2.35-2.21-1.24.55,1.38.55,1.38h-1.87s.42-.28.55-1.38-2.21,1.24-2.21,1.24a11.92,11.92,0,0,0,0-2.35c-.14-1-2.63,1.66-2.63,1.66s-.28-3.88-2.08-4c-.88-.07-1.16,1-1.22,2.14a3.1,3.1,0,0,0-1.19.74c-.53-.58-1.1-1.07-1.46-.95a.2.2,0,0,0-.1.07c-.3-1-.82-1.94-1.7-2-1.13-.09-1.28,1.75-1.23,3.12l-.55.52c-.15-.2-.32-.41-.5-.61-.21-1.16-.73-2.94-1.94-3s-1.27,1.66-1.24,3c-.19.21-.37.43-.53.64-.16-.21-.34-.43-.53-.64,0-1.36-.13-3.11-1.23-3s-1.73,1.87-1.94,3c-.18.2-.35.41-.51.61l-.55-.52c0-1.37-.09-3.21-1.23-3.12-1.35.1-1.84,2.3-2,3.4-.4-.26-.7-.35-.69,0-.75-.71-1.92-1.71-2-1a11.92,11.92,0,0,0,0,2.35s-2.36-2.35-2.22-1.24.56,1.38.56,1.38h-5.81c.4-.56,1.86-2.67,1.14-2.91s-1.89,1.4-2.47,2.2a4,4,0,0,0,.15-.67c0-.3-.11-.35-.33-.26.06-1.38-.07-3.29-1.23-3.2s-1.62,1.55-1.87,2.69c-.28.22-.56.48-.8.71,0-.21-.09-.26-.26-.22-.18-.17-.37-.33-.56-.49-.25-1.14-.78-2.61-1.87-2.69s-1.28,1.75-1.23,3.12l-.07.06c-.17,0-.27,0-.26.24l-.23.22c-.15-.2-.32-.41-.5-.61-.21-1.16-.73-2.94-1.94-3-.88-.07-1.16,1-1.22,2.14a3.1,3.1,0,0,0-1.19.74c-.53-.58-1.1-1.07-1.47-.95l-.1.07c-.29-1-.81-1.94-1.69-2-1.8-.14-1.11,4.56-1.11,4.56s-1.94-2.9-2.77-2.63a.91.91,0,0,0-.73.26c-.28-.26-1.26.57-1.93,1.2.08-1.38,0-3.49-1.21-3.39a1.3,1.3,0,0,0-.75.32,1.25,1.25,0,0,0-.74-.32c-1.21-.1-1.29,2-1.22,3.39-.66-.63-1.64-1.46-1.92-1.2a.92.92,0,0,0-.74-.26c-.36.13-.74.72-1.06,1.35-.32-.17-.54-.18-.5.18a5.07,5.07,0,0,0,.13.62c-.14.33-.24.6-.3.76h-1.6c.41-.56,1.87-2.67,1.15-2.91s-2.77,2.63-2.77,2.63.69-4.7-1.11-4.56-2.07,4-2.07,4a16,16,0,0,0-1.62-1.47c.08-.3.07-.54-.14-.61a.87.87,0,0,0-.66.21.19.19,0,0,0-.19.15,8.91,8.91,0,0,0-1.24,1.34l-.23-.18c0-.29-.11-.33-.33-.25.06-1.38-.07-3.29-1.23-3.2s-1.63,1.55-1.87,2.69c-.28.23-.57.49-.81.72-.24-.23-.53-.49-.81-.72-.25-1.14-.78-2.61-1.88-2.69s-1.28,1.82-1.22,3.2c-.23-.09-.37,0-.33.26a4.08,4.08,0,0,0,.14.67c-.58-.8-1.83-2.4-2.46-2.2s.74,2.35,1.14,2.91h-2.32s.41-.28.55-1.38-2.21,1.24-2.21,1.24a12.83,12.83,0,0,0,0-2.35c-.14-1-2.63,1.66-2.63,1.66s-.28-3.88-2.08-4c-1.17-.09-1.29,1.87-1.23,3.25a3.47,3.47,0,0,0-.56.38,8.42,8.42,0,0,0-1.24-1.34.2.2,0,0,0-.19-.15.87.87,0,0,0-.66-.21c-.45-.15-1.22.64-1.84,1.39-.15-.95-.53-2.59-1.44-3.14a.78.78,0,0,0-.52-.18h-.11a.76.76,0,0,0-.51.18c-.92.54-1.3,2.19-1.45,3.14-.61-.75-1.39-1.54-1.84-1.39a1.27,1.27,0,0,0-.38.28c-.26-.12-.45-.11-.49.14a4.8,4.8,0,0,0-.05.67,11.49,11.49,0,0,0-.54,1.13,9.21,9.21,0,0,0-.94-.76c.36-.67.6-1.33.22-1.46-.83-.27-2.77,2.63-2.77,2.63s.69-4.7-1.11-4.56-2.08,4-2.08,4-2.49-2.63-2.63-1.66a11.92,11.92,0,0,0,0,2.35s-2.35-2.35-2.21-1.24.55,1.38.55,1.38h-1.87s.42-.28.56-1.38-2.22,1.24-2.22,1.24a11.92,11.92,0,0,0,0-2.35c-.14-1-2.63,1.66-2.63,1.66s-.28-3.88-2.08-4-1.1,4.56-1.1,4.56-1.94-2.9-2.77-2.63c-.39.13-.15.79.22,1.46a12.49,12.49,0,0,0-1.54,1.31,11.92,11.92,0,0,0,0-2.35c-.13-1-2.63,1.66-2.63,1.66s-.27-3.88-2.07-4-1.11,4.56-1.11,4.56-1.94-2.9-2.77-2.63c-.83-.27-2.77,2.63-2.77,2.63s0-.35.09-.87c.45-.76.83-1.61.39-1.76a.56.56,0,0,0-.37.05c-.09-1.07-.38-2.05-1.22-2a1.65,1.65,0,0,0-1.25.95c-.17-.59-.49-1-1-.95-1,.07-1.5,1.23-1.78,2.29-.34-.19-.6-.23-.64.06a7.5,7.5,0,0,0-.06,1.26c-.71-.7-2.13-2-2.23-1.26a11.92,11.92,0,0,0,0,2.35s-2.35-2.35-2.22-1.24.56,1.38.56,1.38H111.5s.41-.28.55-1.38-2.21,1.24-2.21,1.24a11.92,11.92,0,0,0,0-2.35c-.11-.72-1.52.56-2.23,1.26a7.5,7.5,0,0,0-.06-1.26c0-.29-.3-.25-.64-.06-.28-1.06-.81-2.22-1.78-2.29-.54-.05-.86.36-1,.95a1.64,1.64,0,0,0-1.25-.95c-.83-.07-1.13.91-1.21,2a.56.56,0,0,0-.37-.05c-.45.15-.07,1,.39,1.76a8.64,8.64,0,0,0,.09.87s-1.94-2.9-2.77-2.63c-.83-.27-2.77,2.63-2.77,2.63s.69-4.7-1.11-4.56-2.08,4-2.08,4-2.49-2.63-2.63-1.66a12.83,12.83,0,0,0,0,2.35,12.92,12.92,0,0,0-1.53-1.31c.37-.67.6-1.33.22-1.46-.83-.27-2.77,2.63-2.77,2.63s.69-4.7-1.11-4.56-2.07,4-2.07,4-2.49-2.63-2.63-1.66a11.92,11.92,0,0,0,0,2.35s-2.36-2.35-2.22-1.24.56,1.38.56,1.38H77s.41-.28.55-1.38-2.22,1.24-2.22,1.24a11.92,11.92,0,0,0,0-2.35c-.13-1-2.63,1.66-2.63,1.66s-.27-3.88-2.07-4-1.11,4.56-1.11,4.56-1.94-2.9-2.77-2.63c-.38.13-.14.79.22,1.46a12.92,12.92,0,0,0-1.53,1.31,11.92,11.92,0,0,0,0-2.35c-.14-1-2.63,1.66-2.63,1.66s-.28-3.88-2.08-4-1.11,4.56-1.11,4.56-1.93-2.9-2.76-2.63c-.84-.27-2.77,2.63-2.77,2.63s.69-4.7-1.11-4.56-2.08,4-2.08,4-2.49-2.63-2.63-1.66a11.92,11.92,0,0,0,0,2.35s-2.35-2.35-2.21-1.24.55,1.38.55,1.38H34.8s.42-.28.56-1.38-2.22,1.24-2.22,1.24a11.92,11.92,0,0,0,0-2.35c-.14-1-2.63,1.66-2.63,1.66s-.27-3.88-2.07-4-1.11,4.56-1.11,4.56-1.94-2.9-2.77-2.63,1.25,3.05,1.25,3.05H17.22L23,461.51l-2.91.42H476v-2.22Zm-404.33,0h-.8a1.35,1.35,0,0,0,.38-.61C67.61,459.36,67.76,459.58,67.86,459.71Zm20.86,0h-.79c.09-.13.25-.35.42-.61A1.3,1.3,0,0,0,88.72,459.71Zm55.83,0h-.8a1.26,1.26,0,0,0,.38-.61C144.3,459.36,144.46,459.58,144.55,459.71Zm33.88-.29h0Zm-13,.29h-.8c.1-.13.25-.35.42-.61A1.26,1.26,0,0,0,165.42,459.71Zm73.35-1-.19.19a6.34,6.34,0,0,0-.07-.65C238.59,458.39,238.68,458.54,238.77,458.69Zm-39.45.66c0,.14,0,.22,0,.22l-.1-.1Zm89.86.36h-.8c.1-.13.25-.35.42-.61A1.26,1.26,0,0,0,289.18,459.71Zm55.83,0h-.8a1.3,1.3,0,0,0,.37-.61C344.76,459.36,344.91,459.58,345,459.71Zm33.87-.29h0Zm-13,.29h-.79c.09-.13.25-.35.42-.61A1.3,1.3,0,0,0,365.87,459.71Zm33.9-.36c0,.14,0,.22,0,.22a.72.72,0,0,1-.1-.1A.83.83,0,0,1,399.77,459.35Zm30.27.36a1.26,1.26,0,0,0,.38-.61c.17.26.32.48.42.61Z" style="fill:#AA000E"></path></g></svg>